<?xml version="1.0" encoding="UTF-8" standalone="no"?>
<!-- Created with Inkscape (http://www.inkscape.org/) -->

<svg
   width="500mm"
   height="500mm"
   viewBox="0 0 500 500"
   version="1.1"
   id="svg1"
   xml:space="preserve"
   inkscape:version="1.4.2 (f4327f4, 2025-05-13)"
   sodipodi:docname="logo25.svg"
   xmlns:inkscape="http://www.inkscape.org/namespaces/inkscape"
   xmlns:sodipodi="http://sodipodi.sourceforge.net/DTD/sodipodi-0.dtd"
   xmlns="http://www.w3.org/2000/svg"
   xmlns:svg="http://www.w3.org/2000/svg"><sodipodi:namedview
     id="namedview1"
     pagecolor="#ffffff"
     bordercolor="#000000"
     borderopacity="0.25"
     inkscape:showpageshadow="2"
     inkscape:pageopacity="0.0"
     inkscape:pagecheckerboard="0"
     inkscape:deskcolor="#d1d1d1"
     inkscape:document-units="mm"
     inkscape:zoom="0.2692943"
     inkscape:cx="-191.24059"
     inkscape:cy="603.42904"
     inkscape:window-width="1920"
     inkscape:window-height="1057"
     inkscape:window-x="-8"
     inkscape:window-y="-8"
     inkscape:window-maximized="1"
     inkscape:current-layer="layer1" /><defs
     id="defs1" /><g
     inkscape:label="Capa 1"
     inkscape:groupmode="layer"
     id="layer1"><path
       style="fill:#000000;stroke-width:0.159174"
       d="m 121.29631,156.1488 c -0.0757,-0.10253 -0.0898,-0.3009 -0.0241,-0.33942 0.0253,-0.0148 0.0433,0.0275 0.0433,0.10195 0,0.0805 0.039,0.16432 0.10617,0.22795 0.0958,0.0908 0.0982,0.10065 0.0241,0.10065 -0.0451,0 -0.11239,-0.041 -0.14943,-0.0911 z"
       id="path42" /><g
       id="g59"
       transform="matrix(9.1693875,0,0,9.1693875,-822.86277,-1128.9306)"><path
         style="fill:#000000;stroke-width:0.159174"
         d="m 124.75514,159.75604 c -0.0798,-0.1635 -0.15953,-0.31109 -0.17735,-0.32796 -0.0178,-0.0169 -0.1181,0.0169 -0.22283,0.0751 -0.10475,0.0582 -0.21926,0.0953 -0.25454,0.0825 -0.0352,-0.0128 -0.11079,-0.12335 -0.16782,-0.2456 -0.0571,-0.12224 -0.12117,-0.23249 -0.14253,-0.24501 -0.0213,-0.0125 -0.14397,0.0151 -0.27249,0.0614 -0.15868,0.0572 -0.25453,0.0718 -0.2987,0.0456 -0.0402,-0.0238 -0.0899,-0.17798 -0.12993,-0.40346 l -0.0649,-0.36487 -0.21627,-0.0272 c -0.35189,-0.0442 -1.41338,-0.0375 -1.60046,0.0102 -0.0952,0.0242 -0.19735,0.0738 -0.22708,0.11012 -0.082,0.10015 -0.0673,0.35442 0.025,0.4336 0.11013,0.0945 0.12357,0.0882 0.18272,-0.0859 0.0697,-0.20531 0.11805,-0.25627 0.24288,-0.25627 0.15476,0 0.31715,0.17339 0.31715,0.33864 0,0.15797 -0.18781,0.46301 -0.36763,0.5971 -0.15051,0.11223 -0.40061,0.11697 -0.61815,0.0117 -0.27019,-0.13072 -0.31704,-0.20858 -0.3432,-0.5704 -0.032,-0.44212 0.006,-0.59623 0.19573,-0.79536 0.31761,-0.33326 0.36313,-0.34675 1.41899,-0.42045 0.97425,-0.068 1.05518,-0.0876 1.05518,-0.25569 0,-0.0295 0.0316,-0.0537 0.0703,-0.0537 0.0562,0 0.0647,0.0266 0.0423,0.13271 -0.0154,0.073 -0.0536,0.15702 -0.085,0.18673 -0.0624,0.0592 -0.0964,0.063 -1.1955,0.13259 -0.84889,0.0538 -1.00741,0.10441 -1.24212,0.39694 -0.11287,0.14065 -0.12022,0.17449 -0.11719,0.53919 l 0.003,0.38912 0.14616,0.11567 c 0.17817,0.141 0.39903,0.1875 0.5432,0.11437 0.11588,-0.0588 0.36394,-0.39922 0.36394,-0.49947 0,-0.035 -0.0352,-0.1048 -0.0782,-0.15514 -0.0734,-0.086 -0.0826,-0.0873 -0.1514,-0.0221 -0.0403,0.0382 -0.0732,0.1129 -0.0732,0.16606 0,0.10936 -0.10359,0.22552 -0.20106,0.22552 -0.0359,0 -0.12202,-0.0539 -0.19156,-0.11986 -0.10563,-0.10014 -0.12644,-0.1532 -0.12644,-0.3225 0,-0.3523 0.16006,-0.45671 0.80023,-0.52199 0.33535,-0.0342 1.50037,0.0493 1.5402,0.11035 0.0164,0.0253 0.052,0.18591 0.0788,0.35685 0.0268,0.17095 0.0654,0.32659 0.0858,0.34587 0.0205,0.0194 0.13245,0.003 0.25085,-0.037 0.11762,-0.0396 0.24812,-0.0595 0.28999,-0.0443 0.0419,0.0152 0.11691,0.11923 0.16678,0.23112 0.0499,0.11189 0.11383,0.21186 0.14214,0.22215 0.0283,0.0103 0.15818,-0.0422 0.28858,-0.11667 l 0.2371,-0.1354 0.0764,0.23095 c 0.042,0.12702 0.12272,0.31798 0.17932,0.42435 0.12172,0.22872 0.12297,0.23714 0.0352,0.23714 -0.0419,0 -0.12298,-0.1134 -0.21263,-0.29729 z"
         id="path41" /><g
         id="g58"><path
           style="fill:#000000;stroke-width:0.159174"
           d="m 121.92034,163.96742 c -0.023,-0.0574 -0.0536,-0.14876 -0.0679,-0.20309 -0.0144,-0.0543 -0.13161,-0.17589 -0.2605,-0.27015 -0.24508,-0.17924 -0.3234,-0.32391 -0.23194,-0.42839 0.0297,-0.034 0.17304,-0.14078 0.31843,-0.23734 0.45562,-0.30261 3.50688,-2.53524 3.5405,-2.59061 0.0182,-0.03 -0.0187,-0.13849 -0.0856,-0.25187 -0.0647,-0.10955 -0.17968,-0.35552 -0.25557,-0.5466 -0.0759,-0.19108 -0.15714,-0.35348 -0.18054,-0.36087 -0.0234,-0.007 -0.14275,0.045 -0.26521,0.11643 -0.12246,0.0714 -0.22896,0.12311 -0.23662,0.11485 -0.007,-0.008 -0.048,-0.0796 -0.0896,-0.15855 -0.15688,-0.2978 -0.29633,-0.35077 -0.60334,-0.22917 l -0.14608,0.0579 -0.0519,-0.34641 c -0.0285,-0.19053 -0.0783,-0.3714 -0.11043,-0.40193 -0.0421,-0.0399 -0.27115,-0.0639 -0.81337,-0.0853 -0.77971,-0.0308 -1.21561,0.006 -1.45531,0.12379 -0.23266,0.11405 -0.31718,0.56791 -0.14636,0.78591 0.23227,0.29643 0.50414,0.28418 0.6305,-0.0284 0.0729,-0.18022 0.0744,-0.18126 0.0767,-0.0523 0.002,0.0989 -0.0401,0.17388 -0.16887,0.30215 -0.18896,0.18831 -0.28824,0.19489 -0.52538,0.0348 -0.10412,-0.0703 -0.12148,-0.11544 -0.14819,-0.38551 -0.0368,-0.3721 0.0357,-0.53823 0.3197,-0.73328 0.17979,-0.12345 0.20859,-0.12921 0.88534,-0.17693 0.38473,-0.0272 0.81943,-0.0505 0.96602,-0.0519 0.24296,-0.002 0.27638,-0.0137 0.37847,-0.12867 0.0922,-0.10387 0.11199,-0.16802 0.11199,-0.36305 0,-0.34027 -0.10348,-0.43746 -0.50242,-0.47186 -0.8359,-0.0721 -1.42723,-0.22655 -1.6834,-0.43976 -0.15958,-0.13282 -0.32304,-0.48824 -0.32293,-0.70218 1.5e-4,-0.2977 0.29719,-0.60327 0.58644,-0.60327 0.10401,0 0.17013,0.0327 0.25141,0.12422 0.11448,0.12896 0.18484,0.36281 0.14144,0.47003 -0.0427,0.10568 -0.10909,0.0681 -0.13803,-0.0781 -0.0526,-0.26577 -0.27353,-0.39929 -0.48729,-0.2945 -0.33003,0.16178 -0.35051,0.68884 -0.0375,0.96245 0.0954,0.0834 0.19147,0.10585 0.66522,0.15568 0.30454,0.032 0.76365,0.0811 1.02023,0.10912 0.25658,0.028 0.48199,0.041 0.50093,0.0288 0.019,-0.0121 0.0884,-0.16355 0.1544,-0.33652 l 0.11999,-0.31449 0.1933,0.0786 c 0.22357,0.0908 0.27984,0.0737 0.48493,-0.14772 l 0.13682,-0.14772 0.22014,0.16615 c 0.12107,0.0914 0.23576,0.15701 0.25485,0.14582 0.0537,-0.0315 0.51764,-0.87775 0.51764,-0.94428 0,-0.0324 -0.7786,-1.16657 -1.73022,-2.52025 -1.75146,-2.49146 -1.85029,-2.65332 -1.6618,-2.72189 0.0377,-0.0137 0.1723,-0.0249 0.29925,-0.0249 0.30976,0 0.34177,-0.0161 0.50107,-0.25141 0.0756,-0.11171 0.19511,-0.23135 0.26551,-0.26586 0.11769,-0.0577 0.13507,-0.0567 0.2152,0.012 0.13117,0.11244 0.21126,0.28337 0.56742,1.21102 0.41158,1.072 1.8472,4.38167 1.91062,4.40474 0.0659,0.024 1.31991,-0.54838 1.31991,-0.60249 0,-0.0241 -0.0974,-0.21112 -0.21628,-0.41552 -0.11894,-0.20439 -0.21628,-0.38771 -0.21628,-0.40736 0,-0.0196 0.16431,-0.0357 0.36512,-0.0357 0.20082,0 0.37674,-0.0178 0.39094,-0.0396 0.0141,-0.0218 -0.0723,-0.2642 -0.1921,-0.53873 -0.11984,-0.27451 -0.21791,-0.50776 -0.21791,-0.51831 0,-0.0106 0.17325,-0.006 0.385,0.01 l 0.385,0.0289 0.0702,-0.22923 c 0.0601,-0.19607 0.064,-0.30792 0.0269,-0.77286 -0.0238,-0.299 -0.0635,-0.83886 -0.088,-1.1997 -0.0441,-0.64894 -0.15535,-1.22386 -0.28149,-1.45508 -0.11171,-0.2048 -0.32549,-0.3286 -0.56739,-0.3286 -0.73109,0 -0.98671,0.80686 -0.29828,0.94153 0.17375,0.034 0.18925,0.14088 0.0295,0.2036 -0.1454,0.0571 -0.36246,-0.008 -0.49388,-0.14797 -0.10862,-0.11573 -0.17294,-0.48033 -0.11852,-0.67189 0.1223,-0.43057 0.95427,-0.64318 1.36232,-0.34815 0.39358,0.28458 0.48574,0.67002 0.54471,2.27811 0.0282,0.76715 0.0632,1.24713 0.096,1.31214 0.047,0.0934 0.0824,0.10454 0.39728,0.12531 0.21565,0.0142 0.36518,0.007 0.39753,-0.0205 0.0641,-0.0536 0.10959,-0.3237 0.25216,-1.49895 0.21373,-1.76186 0.32811,-2.0833 0.80901,-2.27378 0.28537,-0.11303 0.73817,-0.0535 0.94548,0.12437 0.11816,0.10137 0.22766,0.4808 0.1915,0.66354 -0.0389,0.19659 -0.26303,0.405 -0.47633,0.44293 -0.14216,0.0253 -0.17828,0.016 -0.24565,-0.0628 -0.10348,-0.12112 -0.10528,-0.22543 -0.003,-0.18562 0.18568,0.0725 0.22857,0.0661 0.35328,-0.0521 0.24119,-0.22863 0.22898,-0.46175 -0.0373,-0.71426 -0.14627,-0.13865 -0.18927,-0.15653 -0.37646,-0.15653 -0.28654,0 -0.49205,0.13569 -0.64018,0.42271 -0.21528,0.41712 -0.45633,1.91758 -0.45633,2.84051 0,0.68768 -0.0271,0.64971 0.46478,0.65153 0.17237,8e-4 0.3135,0.0178 0.3136,0.0382 1.2e-4,0.0204 -0.0883,0.24674 -0.19648,0.50307 -0.10818,0.25633 -0.1849,0.48416 -0.17048,0.50629 0.0145,0.0221 0.19054,0.0402 0.39135,0.0402 0.20082,0 0.36512,0.009 0.36512,0.0202 0,0.011 -0.0813,0.21601 -0.1807,0.45541 -0.12446,0.29978 -0.16823,0.45352 -0.14059,0.49386 0.0221,0.0322 0.40571,0.21768 0.85251,0.41213 0.4468,0.19446 0.80691,0.36687 0.80023,0.38314 -0.006,0.0163 -0.085,0.10561 -0.1742,0.19852 l -0.16204,0.16892 -0.3375,-0.23721 c -0.18562,-0.13047 -0.46568,-0.30022 -0.62235,-0.37723 -0.25782,-0.12671 -0.29555,-0.16206 -0.39738,-0.37236 -0.35194,-0.72687 -1.05503,-0.85734 -1.49779,-0.27794 -0.17498,0.22898 -0.27341,0.55568 -0.23691,0.78637 l 0.0284,0.17939 -0.24925,0.13335 c -0.51969,0.27802 -0.8892,0.71137 -1.03713,1.21631 l -0.0735,0.25098 -0.26481,0.0259 c -0.4547,0.0445 -0.64439,0.24383 -0.66884,0.70278 -0.029,0.54511 0.21405,0.82144 0.75441,0.85764 l 0.25059,0.0168 0.0981,0.3504 c 0.11207,0.40019 0.2431,0.61803 0.53242,0.88517 0.67725,0.62533 1.67236,0.68175 2.30313,0.13059 0.47716,-0.41694 0.58829,-1.1248 0.2654,-1.69046 -0.23917,-0.41898 -0.55994,-0.42827 -1.06444,-0.0308 -0.28099,0.22136 -0.40585,0.20733 -0.54642,-0.0614 -0.14284,-0.2731 -0.15533,-0.79975 -0.0239,-1.01185 0.26249,-0.42391 0.84621,-0.47754 1.56221,-0.14354 0.5155,0.24047 0.87174,0.70278 1.03771,1.3467 0.079,0.30642 0.13255,0.35509 0.28177,0.25601 0.17869,-0.11864 0.39463,-0.077 0.48565,0.0936 0.0899,0.16854 0.1097,0.37823 0.0546,0.57934 -0.0457,0.16703 -0.0616,0.18328 -0.16758,0.17156 -0.33194,-0.0367 -0.7806,0.32399 -1.07189,0.86177 -0.23044,0.42544 -0.44298,0.63792 -0.90177,0.90148 l -0.36052,0.20711 0.0144,0.2164 c 0.013,0.19374 -4.2e-4,0.23405 -0.12836,0.38495 -0.15735,0.18566 -0.44099,0.34399 -0.58089,0.32423 -0.0612,-0.009 -0.10842,-0.0651 -0.14796,-0.17671 -0.20174,-0.56977 -0.26953,-0.63556 -0.65482,-0.63556 -0.1976,0 -0.27171,-0.0364 -1.12577,-0.55356 -0.50284,-0.30446 -0.94087,-0.55355 -0.97339,-0.55355 -0.0325,0 -0.74832,0.6866 -1.59066,1.52579 -2.17164,2.1635 -2.13,2.12358 -2.2142,2.12358 -0.0421,0 -0.0953,-0.0469 -0.11828,-0.10431 z"
           id="path40" /><path
           style="fill:#000000;stroke-width:0.159174"
           d="m 127.43614,173.06739 c -3.10352,-0.29266 -5.74819,-1.28221 -8.00227,-2.99416 -0.60614,-0.46037 -1.61945,-1.41548 -2.15172,-2.02817 -1.03455,-1.19085 -1.99548,-1.69699 -3.49312,-1.83991 -0.35951,-0.0343 -1.61286,-0.0405 -4.5202,-0.0224 -2.21251,0.0137 -7.06902,0.009 -10.792234,-0.01 l -6.769483,-0.0346 -0.264977,-0.11423 -0.264977,-0.11423 -0.09037,-0.43749 c -0.163705,-0.79246 -0.20089,-1.16356 -0.197933,-1.97513 0.003,-0.85807 0.05625,-1.24949 0.260007,-1.91604 0.313829,-1.02659 0.916576,-2.00821 1.758198,-2.86336 0.1727,-0.17548 0.848951,-0.79106 1.502783,-1.36795 2.829618,-2.49667 4.967969,-4.49374 9.860226,-9.20875 5.31465,-5.12211 5.5888,-5.39024 5.87027,-5.74146 0.51841,-0.64689 0.8688,-1.27185 1.08015,-1.92656 0.10796,-0.33443 0.11932,-0.43 0.12184,-1.02489 0.003,-0.72513 -0.0486,-0.96156 -0.34062,-1.55816 -0.42667,-0.87174 -1.42866,-1.89745 -2.54935,-2.60974 -2.40375,-1.52777 -4.56595,-1.51638 -6.32617,0.0333 -0.61612,0.54242 -1.27501,1.54252 -1.61128,2.44569 -0.3869,1.03914 -0.4134,2.14701 -0.0739,3.09301 0.31959,0.89071 1.06406,1.88121 1.93398,2.5731 0.21227,0.16884 0.70755,0.52288 1.10061,0.78678 l 0.71466,0.4798 -0.18577,0.17159 c -0.10222,0.0944 -1.25237,1.14277 -2.556,2.32979 -2.207859,2.01039 -2.376749,2.15495 -2.465561,2.11037 -0.190969,-0.0959 -0.84064,-0.52369 -1.241598,-0.81764 -0.550124,-0.4033 -1.480997,-1.26794 -1.952831,-1.81388 -3.447606,-3.98912 -3.723321,-9.60113 -0.686968,-13.98298 1.290412,-1.86223 3.012021,-3.29096 5.126978,-4.25477 4.19493,-1.91168 9.19208,-1.48539 12.95502,1.10514 2.79935,1.92715 4.62631,4.77978 5.15096,8.04273 0.11545,0.71811 0.15746,2.09177 0.086,2.81234 -0.2439,2.45915 -1.25991,4.73563 -2.93108,6.56745 -1.15808,1.2694 -3.47428,3.5214 -7.08561,6.88917 -1.5226,1.41991 -3.09925,2.90292 -3.50369,3.29557 -0.70903,0.68837 -2.8398,2.90825 -2.86926,2.98926 -0.009,0.0254 4.07522,0.0433 11.35812,0.0499 l 11.37251,0.0103 -1.0392,0.75859 c -0.57157,0.41721 -1.39593,1.01389 -1.83193,1.32594 -0.45385,0.32482 -0.82012,0.61756 -0.85678,0.68478 -0.13736,0.25181 -0.0276,0.51405 0.31662,0.75706 0.11749,0.0829 0.19086,0.17536 0.22513,0.28363 0.11091,0.35047 0.4164,0.48498 0.71033,0.31278 0.0752,-0.0441 0.77152,-0.71297 1.54729,-1.4864 0.77575,-0.77344 1.46918,-1.45902 1.54096,-1.52352 l 0.13049,-0.11728 0.24001,0.10416 c 0.37039,0.16075 1.14999,0.6948 1.15076,0.78831 1.6e-4,0.0236 -0.0969,0.25157 -0.21592,0.50665 -0.11896,0.25509 -0.21629,0.47245 -0.21629,0.48302 0,0.0106 0.17033,0.008 0.37849,-0.006 0.56128,-0.0379 0.56177,-0.0367 0.23478,0.55626 -0.15042,0.27278 -0.26096,0.50783 -0.24565,0.52235 0.0153,0.0145 0.21293,0.0205 0.43916,0.0133 0.49323,-0.0157 0.57783,0.0279 0.57672,0.29727 -8.5e-4,0.25285 -0.15993,1.61128 -0.23896,2.04312 -0.0997,0.54492 -0.34753,1.2494 -0.45942,1.30616 -0.12633,0.0641 -0.44799,0.01 -0.58046,-0.0985 -0.12712,-0.10366 -0.18,-0.35682 -0.11029,-0.52815 0.0399,-0.0981 0.0707,-0.11196 0.27403,-0.12302 0.20993,-0.0114 0.23013,-0.0213 0.24202,-0.11815 0.0359,-0.29215 -0.39643,-0.40726 -0.70137,-0.18678 -0.0843,0.0609 -0.20464,0.19401 -0.26757,0.2958 -0.14688,0.23759 -0.13145,0.51587 0.0404,0.72954 0.13983,0.17377 0.59036,0.3949 0.80346,0.39435 0.33328,-8e-4 0.9057,-0.36219 0.99427,-0.62762 0.0868,-0.2602 0.32499,-1.83489 0.39191,-2.5913 0.0477,-0.5389 0.0593,-0.57268 0.21736,-0.63476 0.30833,-0.12107 0.40237,0.10509 0.51987,1.25031 0.14595,1.4224 0.24977,1.85085 0.53353,2.20169 0.20506,0.25357 0.4155,0.34136 0.8074,0.33682 0.33933,-0.004 0.59041,-0.0881 0.74451,-0.24966 0.20679,-0.21676 0.26622,-0.62675 0.12684,-0.87484 -0.0927,-0.16508 -0.38888,-0.35162 -0.62023,-0.39069 -0.13504,-0.0228 -0.17694,-0.0108 -0.27032,0.0778 -0.0968,0.0918 -0.10433,0.11767 -0.0602,0.20933 0.0307,0.0639 0.14015,0.14488 0.28114,0.2081 0.21582,0.0968 0.23087,0.11314 0.23087,0.25068 0,0.11624 -0.0352,0.18056 -0.16793,0.30633 -0.3063,0.29037 -0.56607,0.18697 -0.8154,-0.32457 -0.19509,-0.40028 -0.33041,-0.9994 -0.44568,-1.97315 -0.136,-1.14891 -0.11642,-1.18805 0.56915,-1.13794 0.40833,0.0298 0.40674,0.0334 0.1861,-0.416 -0.0851,-0.1733 -0.16567,-0.41195 -0.17906,-0.53033 l -0.0244,-0.21523 0.40265,0.0271 c 0.33731,0.0227 0.39867,0.0177 0.37806,-0.0308 -0.0135,-0.0318 -0.11786,-0.2486 -0.23185,-0.48169 -0.15789,-0.3229 -0.1967,-0.43964 -0.16299,-0.49032 0.0369,-0.0555 0.88152,-0.43571 0.90471,-0.40726 0.004,0.005 0.32407,0.71042 0.71097,1.56741 0.8595,1.90384 1.35085,2.9521 1.63781,3.49416 0.30341,0.57315 0.36935,0.58792 0.78479,0.17572 l 0.28929,-0.28703 h 0.30283 c 0.34139,0 0.44601,-0.0624 0.44601,-0.26608 0,-0.13823 -0.75685,-1.23045 -1.69092,-2.4402 -0.33957,-0.43977 -0.88657,-1.14874 -1.21558,-1.5755 -0.32901,-0.42674 -0.61972,-0.84401 -0.64603,-0.92725 -0.0464,-0.14692 -0.04,-0.16247 0.22179,-0.53148 l 0.26965,-0.38013 0.11393,0.1968 c 0.24107,0.41644 0.37105,0.35761 0.622,-0.28156 0.007,-0.0188 0.12826,0.0139 0.26859,0.0727 0.1596,0.0669 0.26531,0.0913 0.28234,0.0652 0.015,-0.023 0.0629,-0.17562 0.10655,-0.33923 0.0436,-0.16362 0.0911,-0.31028 0.10572,-0.32592 0.0291,-0.0313 1.36194,0.10374 1.72775,0.17515 0.14005,0.0274 0.2827,0.0891 0.36308,0.15718 0.12159,0.10298 0.13212,0.13275 0.12866,0.36375 -0.004,0.29618 -0.057,0.40831 -0.20826,0.4443 -0.1507,0.0359 -0.24871,-0.0645 -0.24147,-0.24718 0.006,-0.16715 -0.09,-0.28026 -0.224,-0.26214 -0.18543,0.0251 -0.14227,0.5861 0.0598,0.77768 0.10169,0.0964 0.15937,0.11635 0.3365,0.11635 0.41052,0 0.59772,-0.28549 0.56275,-0.8582 -0.0161,-0.26476 -0.0416,-0.35752 -0.1344,-0.49047 -0.22208,-0.31812 -0.71284,-0.4897 -1.66744,-0.58296 -0.52181,-0.051 -0.52209,-0.0511 -0.5669,-0.17292 -0.0516,-0.14031 -0.0585,-0.4369 -0.0117,-0.50337 0.0203,-0.0288 0.33804,-0.0544 0.87526,-0.0706 0.46392,-0.014 0.92134,-0.0465 1.01651,-0.0723 0.3634,-0.0983 0.59247,-0.34196 0.69621,-0.74045 0.0865,-0.33234 0.0333,-0.56144 -0.1767,-0.76049 -0.12026,-0.114 -0.1748,-0.13574 -0.34065,-0.13574 -0.15846,0 -0.22717,0.0247 -0.34774,0.12507 -0.19219,0.15996 -0.27014,0.36772 -0.19903,0.53046 0.0527,0.1207 0.1501,0.18296 0.22108,0.14139 0.022,-0.0129 0.0696,-0.0907 0.10588,-0.1729 0.0702,-0.15922 0.18213,-0.29598 0.24231,-0.29598 0.0202,0 0.0755,0.0369 0.12305,0.082 0.13801,0.13082 0.12037,0.45485 -0.0336,0.61827 -0.16152,0.17136 -0.33581,0.19787 -1.31515,0.20003 -0.90478,0.002 -0.82545,0.0315 -0.87799,-0.32624 -0.0632,-0.42993 -0.0577,-0.42062 -0.2323,-0.39397 -0.0868,0.0132 -0.2357,0.0351 -0.33087,0.0485 l -0.17302,0.0245 -0.12771,-0.33158 c -0.0703,-0.18237 -0.14414,-0.33157 -0.16422,-0.33157 -0.02,0 -0.0696,0.0574 -0.11019,0.1275 -0.14367,0.24859 -0.19625,0.29096 -0.32349,0.26068 -0.099,-0.0236 -0.12944,-0.0658 -0.18722,-0.2594 -0.038,-0.12721 -0.12675,-0.33003 -0.19732,-0.45071 -0.0706,-0.12068 -0.12216,-0.22343 -0.11465,-0.22834 0.29454,-0.19248 1.03038,-0.74427 1.70062,-1.27526 0.4758,-0.37696 1.09868,-0.84886 1.38417,-1.04867 0.67342,-0.47132 0.78762,-0.56978 0.82514,-0.7115 0.0378,-0.1425 -0.008,-0.22009 -0.20199,-0.33816 -0.2921,-0.17832 -0.37986,-0.26245 -0.43086,-0.41301 -0.11422,-0.33732 -0.29584,-0.38393 -0.55663,-0.14285 -0.0915,0.0846 -0.69334,0.70115 -1.33747,1.37019 -0.64414,0.66903 -1.18956,1.22721 -1.21205,1.24039 -0.0305,0.0179 -1.66048,-0.66978 -1.71889,-0.72515 -0.005,-0.005 0.0852,-0.23789 0.20198,-0.51665 0.11679,-0.27876 0.20313,-0.52096 0.19187,-0.53824 -0.0113,-0.0173 -0.18512,-0.0444 -0.38635,-0.0603 l -0.36587,-0.0289 0.12254,-0.31429 c 0.0674,-0.17287 0.15838,-0.38524 0.20218,-0.47196 0.0777,-0.15403 0.0777,-0.15897 -0.003,-0.21526 -0.0565,-0.0392 -0.20536,-0.0576 -0.46551,-0.0576 -0.30548,0 -0.38757,-0.0128 -0.40812,-0.0636 -0.0905,-0.22347 0.24427,-2.53838 0.42444,-2.93543 0.0937,-0.2065 0.25643,-0.33021 0.38261,-0.29088 0.10931,0.0341 0.21627,0.14141 0.21627,0.217 0,0.0602 -0.0283,0.0682 -0.17474,0.0495 -0.14188,-0.018 -0.19433,-0.005 -0.27892,0.0705 -0.2936,0.26147 -0.0847,0.76724 0.34866,0.84432 0.34659,0.0616 0.86808,-0.27962 0.96871,-0.6339 0.0784,-0.27577 -0.0123,-0.69858 -0.20128,-0.93837 -0.14039,-0.17819 -0.47442,-0.33318 -0.78421,-0.36387 -0.52212,-0.0517 -1.0125,0.20811 -1.23531,0.65457 -0.13904,0.27863 -0.25954,0.89437 -0.3946,2.01638 -0.14677,1.21927 -0.13437,1.16863 -0.28612,1.16863 -0.0699,0 -0.12595,-0.0226 -0.1272,-0.0513 -0.001,-0.0282 -0.0198,-0.54023 -0.0412,-1.13787 -0.0528,-1.4708 -0.16449,-1.95817 -0.53434,-2.33058 -0.23503,-0.23665 -0.43624,-0.31273 -0.828,-0.31308 -0.2909,-2.2e-4 -0.38957,0.0187 -0.61914,0.11882 -0.52894,0.23074 -0.71439,0.58759 -0.59272,1.14069 0.0701,0.31909 0.21205,0.50386 0.4791,0.62399 0.29563,0.13298 0.70714,0.0566 0.8561,-0.15889 0.17088,-0.24723 0.0486,-0.49784 -0.29829,-0.61171 -0.22355,-0.0734 -0.22915,-0.185 -0.0143,-0.28461 0.45576,-0.21126 0.64232,0.27946 0.72914,1.91788 0.0238,0.45105 0.0541,0.92158 0.0672,1.04561 0.0131,0.12404 0.007,0.24782 -0.0119,0.27506 -0.0273,0.0378 -0.13643,0.0398 -0.46235,0.008 -0.45153,-0.0438 -0.54376,-0.0339 -0.54376,0.0585 0,0.0315 0.0959,0.27657 0.2131,0.5446 l 0.2131,0.48733 -0.31043,0.0104 c -0.39951,0.0134 -0.50507,0.0378 -0.50507,0.11701 0,0.0581 0.12407,0.29067 0.41813,0.78389 l 0.10327,0.1732 -0.29503,0.14085 c -0.16228,0.0775 -0.32887,0.14714 -0.37019,0.15484 -0.0609,0.0113 -0.15363,-0.16545 -0.4877,-0.92911 -0.70406,-1.60943 -1.09466,-2.54181 -1.4039,-3.35112 -0.42253,-1.10585 -0.568,-1.29477 -0.96427,-1.25243 -0.2334,0.025 -0.42887,0.14938 -0.5718,0.36401 -0.10327,0.15515 -0.11323,0.15962 -0.35447,0.15988 -0.48757,4e-4 -0.7321,0.31267 -0.55668,0.71065 0.0325,0.0738 0.8099,1.20164 1.72748,2.50625 l 1.66832,2.37202 -0.12765,0.23972 c -0.0701,0.13185 -0.1432,0.23972 -0.16219,0.23972 -0.019,0 -0.0905,-0.0554 -0.15887,-0.12301 -0.0684,-0.0677 -0.15786,-0.12301 -0.19885,-0.12301 -0.0409,0 -0.15959,0.0936 -0.26355,0.20798 l -0.18902,0.20798 -0.2274,-0.085 c -0.12507,-0.0467 -0.2539,-0.085 -0.2863,-0.085 -0.0344,0 -0.10872,0.13249 -0.17841,0.31779 -0.0657,0.17478 -0.13112,0.33083 -0.14529,0.34679 -0.0141,0.016 -0.35644,-0.002 -0.76058,-0.0394 -0.46421,-0.0432 -0.68711,-0.0777 -0.60526,-0.0936 0.34293,-0.0669 0.4655,-0.28565 0.37296,-0.66566 -0.15686,-0.6442 -0.76655,-0.84229 -1.29424,-0.42052 -0.30116,0.24071 -0.41279,0.63206 -0.29235,1.02481 0.14462,0.47159 0.40652,0.73175 0.90795,0.90188 0.32826,0.11138 0.96224,0.22669 1.25195,0.22772 0.098,2.2e-4 0.20737,0.0185 0.24306,0.0404 0.0422,0.0258 -1.47121,0.04 -4.31474,0.0404 l -4.37961,8e-4 5e-5,-0.85084 c 1.4e-4,-2.3503 0.59767,-4.66469 1.65414,-6.40692 0.45064,-0.74316 0.84696,-1.2599 1.53415,-2.00036 1.92922,-2.07876 2.98849,-4.24004 3.37052,-6.87706 0.10645,-0.73475 0.10805,-2.63019 0.003,-3.42386 -0.13884,-1.04791 -0.3985,-2.22521 -0.71669,-3.24958 l -0.086,-0.27678 h 10.01058 10.0106 v 3.30084 3.30085 h -7.69497 -7.69479 l -0.0241,0.0923 c -0.0132,0.0507 -0.24031,1.00563 -0.5047,2.12198 -0.26438,1.11634 -0.49156,2.06491 -0.50485,2.10795 -0.0234,0.0759 0.004,0.0774 0.94337,0.0499 0.53214,-0.0156 1.27896,-0.0456 1.6596,-0.0668 3.98042,-0.22069 5.64163,-0.0998 7.72112,0.56174 4.60092,1.46375 8.04595,5.10598 9.25383,9.78353 0.47904,1.85509 0.59142,3.75231 0.32348,5.46109 -0.38081,2.42858 -1.45146,4.73952 -3.1059,6.70386 -0.51348,0.60966 -1.69767,1.74412 -2.2778,2.18215 -2.24459,1.6948 -4.60592,2.67057 -7.43778,3.07351 -0.45644,0.0649 -0.85314,0.0858 -1.81674,0.0958 -0.67802,0.007 -1.31063,0.005 -1.40579,-0.004 z"
           id="path26" /></g></g></g></svg>
