<?xml version="1.0" encoding="UTF-8" standalone="no"?>
<!-- Created with Inkscape (http://www.inkscape.org/) -->

<svg
   width="600mm"
   height="155mm"
   viewBox="0 0 600 155"
   version="1.1"
   id="svg1"
   inkscape:version="1.4.2 (f4327f4, 2025-05-13)"
   sodipodi:docname="LogoTortuga_letras.svg"
   xmlns:inkscape="http://www.inkscape.org/namespaces/inkscape"
   xmlns:sodipodi="http://sodipodi.sourceforge.net/DTD/sodipodi-0.dtd"
   xmlns="http://www.w3.org/2000/svg"
   xmlns:svg="http://www.w3.org/2000/svg">
  <sodipodi:namedview
     id="namedview1"
     pagecolor="#ffffff"
     bordercolor="#000000"
     borderopacity="0.25"
     inkscape:showpageshadow="2"
     inkscape:pageopacity="0.0"
     inkscape:pagecheckerboard="0"
     inkscape:deskcolor="#d1d1d1"
     inkscape:document-units="mm"
     inkscape:zoom="0.37104026"
     inkscape:cx="939.25117"
     inkscape:cy="588.88488"
     inkscape:window-width="1920"
     inkscape:window-height="1057"
     inkscape:window-x="-8"
     inkscape:window-y="-8"
     inkscape:window-maximized="1"
     inkscape:current-layer="layer1"
     showgrid="false" />
  <defs
     id="defs1">
    <rect
       x="603.70807"
       y="1458.0627"
       width="724.98871"
       height="363.84192"
       id="rect122" />
    <rect
       x="1390.6847"
       y="735.76923"
       width="455.47617"
       height="97.024513"
       id="rect121" />
    <rect
       x="-385.40292"
       y="1123.8673"
       width="444.69568"
       height="393.48831"
       id="rect10" />
  </defs>
  <g
     inkscape:label="Capa 1"
     inkscape:groupmode="layer"
     id="layer1">
    <path
       style="fill:#000000;stroke-width:0.690722"
       d="m 107.22368,142.07691 -0.34814,-0.41121 0.41119,0.34815 c 0.38643,0.32717 0.4944,0.47425 0.34815,0.47425 -0.0346,0 -0.21972,-0.18504 -0.4112,-0.41119 z"
       id="path101" />
    <path
       style="fill:#000000;stroke-width:0.951905"
       d="m 152.42872,30.080912 c -2.32237,-0.7276 -5.31909,-3.26595 -6.72501,-5.69637 -3.74121,-6.4675 0.0224,-14.4721296 7.75121,-16.4851996 5.41521,-1.41048 11.33781,1.42203 13.78759,6.5939596 0.77179,1.62939 0.80974,1.85117 0.80974,4.73182 0,2.8794 -0.0382,3.10297 -0.80811,4.72835 -1.40524,2.96665 -4.19461,5.2292 -7.51204,6.09328 -1.78429,0.46475 -5.86802,0.48385 -7.30338,0.0342 z"
       id="path116" />
    <path
       style="fill:#000000;stroke-width:0.951905"
       d="m 122.24365,33.930562 c -3.92379,-0.92115 -7.95297,-5.34507 -8.72727,-9.58228 -0.54859,-3.0021 0.67496,-6.76469 2.96638,-9.12208 2.67331,-2.75025 5.36113,-3.92079 9.02265,-3.92932 3.67921,-0.008 6.44617,1.05211 8.93326,3.42438 6.54667,6.24447 3.39375,16.98726 -5.60856,19.10973 -1.73425,0.40888 -5.05504,0.4591 -6.58646,0.0996 z"
       id="path115" />
    <path
       style="fill:#000000;stroke-width:0.951905"
       d="m 182.60027,36.361222 c -2.21719,-0.50043 -4.46722,-1.7757 -6.23835,-3.53574 -4.43359,-4.40583 -4.41371,-10.50086 0.0497,-15.24641 2.17633,-2.31388 3.50796,-2.98343 6.56422,-3.30051 3.3911,-0.35181 5.23565,-0.11454 7.35609,0.94628 4.46914,2.23582 6.81378,6.20758 6.48721,10.98916 -0.45561,6.67087 -7.46345,11.67199 -14.21888,10.14722 z"
       id="path114" />
    <path
       style="fill:#000000;stroke-width:0.951905"
       d="m 96.172865,45.666542 c -6.48588,-1.82556 -10.257438,-8.37239 -8.351358,-14.49663 0.902805,-2.90071 2.824082,-5.0814 5.770547,-6.5497 1.864942,-0.92935 3.244393,-1.22578 5.739106,-1.23326 4.7532,-0.0143 8.96088,2.57352 10.95593,6.73808 2.30309,4.8075 0.23949,11.52927 -4.29763,13.99866 -3.11103,1.69322 -7.0711,2.31562 -9.816595,1.54285 z"
       id="path113" />
    <path
       style="fill:#000000;stroke-width:0.951905"
       d="m 130.52533,55.743422 c -8.36854,-1.19029 -18.86497,-3.81512 -22.41202,-5.60455 l -1.2558,-0.63355 1.74607,-1.62202 c 4.035,-3.74831 12.32884,-8.34932 19.15131,-10.62421 7.56413,-2.52219 14.13991,-3.4533 22.76735,-3.22372 5.6096,0.14926 8.39268,0.48085 13.35486,1.59122 4.17065,0.93325 11.78444,3.61518 13.56248,4.77732 l 0.57227,0.37405 -0.81118,1.17901 c -4.40913,6.40845 -13.71291,11.60352 -24.27489,13.55466 -3.18348,0.58811 -18.76206,0.74929 -22.40045,0.23179 z"
       id="path112" />
    <path
       style="fill:#000000;stroke-width:0.951905"
       d="m 124.10294,77.611372 c -14.42219,-0.5405 -30.620435,-3.99423 -44.327247,-9.45129 -7.439526,-2.9619 -19.041769,-8.61518 -19.887482,-9.69034 -0.590356,-0.7505 -0.494933,-1.04442 0.957119,-2.94833 2.897592,-3.79928 10.342379,-10.39308 15.354496,-13.59941 l 1.839083,-1.17649 2.19065,1.85871 c 6.279545,5.32801 18.810811,12.33479 28.710431,16.05323 15.65426,5.88 35.06635,7.0224 51.05279,3.00447 10.39084,-2.61156 15.91947,-5.87054 28.2387,-16.64592 6.16583,-5.39314 9.01642,-7.49567 10.73643,-7.919 0.5421,-0.13341 0.69261,-0.0812 0.69261,0.24023 0,0.93061 -3.38591,6.9918 -6.62472,11.85908 -3.3806,5.0803 -8.54865,10.7827 -12.89432,14.22749 -8.84594,7.01211 -20.01822,11.38536 -34.3787,13.45709 -4.71956,0.68088 -14.33261,1.00509 -21.65984,0.73048 z"
       id="path111" />
    <path
       style="fill:#000000;stroke-width:0.951905"
       d="m 56.14542,142.4676 c -0.504778,-4.27188 -0.532708,-5.02317 -0.284226,-7.6456 0.591405,-6.24158 2.774038,-11.43314 7.440838,-17.69854 1.475095,-1.98038 2.640033,-3.63459 2.588747,-3.67604 -0.05129,-0.0414 -1.906615,-0.78755 -4.122974,-1.65802 -9.280563,-3.64488 -16.297537,-7.98315 -19.817011,-12.251918 -1.874885,-2.27404 -3.253236,-5.13255 -2.474881,-5.13255 0.137227,0 1.736629,0.91383 3.554229,2.03074 6.938256,4.263558 18.947026,9.794608 27.552711,12.690358 7.960612,2.67869 21.631699,6.11313 29.593387,7.43444 4.41039,0.73193 4.53348,0.76304 4.53348,1.14589 0,1.18316 -8.55591,10.46137 -12.467026,13.5195 -9.39774,7.34822 -21.318098,12.41248 -30.978607,13.161 -1.108179,0.0858 -2.650747,0.21799 -3.427907,0.2936 l -1.413056,0.13748 z"
       id="path110" />
    <path
       style="fill:#000000;stroke-width:0.951905"
       d="m 179.45031,151.07877 c -1.22293,-0.96194 -1.11175,-2.40023 0.81805,-10.58372 2.637,-11.18245 3.75393,-18.29948 4.92102,-31.35639 0.48855,-5.46578 0.77018,-13.726308 0.46795,-13.726308 -0.12539,0 -1.19109,0.57464 -2.3682,1.27696 -2.62105,1.56385 -8.08045,4.236088 -12.46643,6.102018 -7.68249,3.26842 -14.56479,5.18664 -23.57522,6.57085 -7.34547,1.12845 -9.87009,1.28837 -20.12225,1.27465 -8.39199,-0.0113 -10.30652,-0.0874 -14.23006,-0.56664 -20.249977,-2.4732 -40.297122,-8.13541 -55.91268,-15.792238 -8.967376,-4.39698 -12.430992,-6.89231 -14.005131,-10.08984 -0.647211,-1.31467 -0.756423,-1.77206 -0.610135,-2.55539 0.497781,-2.66547 4.010535,-8.37635 8.874984,-14.42854 2.260354,-2.81222 2.835968,-3.38857 3.329288,-3.3335 0.328034,0.0367 2.251422,1.03389 4.27417,2.21614 20.738809,12.12137 44.552594,18.84598 68.783284,19.42321 14.30347,0.34074 26.26973,-1.48026 38.47599,-5.85517 9.34403,-3.34905 18.22863,-9.16429 26.12575,-17.1001 5.31783,-5.34389 8.70579,-9.86415 12.46624,-16.63262 5.17592,-9.31623 9.51427,-14.04103 16.49749,-17.96711 9.9684,-5.60439 21.34331,-5.99864 33.41815,-1.15824 9.53918,3.82394 16.55238,10.10756 20.23545,18.13042 1.19982,2.61356 1.44241,4.04697 1.34076,7.92201 -0.0869,3.31244 -0.11277,3.44851 -1.01418,5.33619 -4.78744,10.02538 -17.20799,19.63018 -31.3129,24.21422 -7.54257,2.45132 -14.67446,3.4905 -23.84864,3.47496 l -5.71484,-0.0101 1.3958,2.94774 c 2.04527,4.31935 2.27262,4.87523 3.09083,7.55788 1.09621,3.59411 1.38044,5.919718 1.36042,11.131018 -0.028,7.26969 -0.93795,11.20468 -4.10726,17.76064 -4.78507,9.8982 -11.74733,17.09696 -21.1628,21.88162 -7.11227,3.61425 -13.69708,5.29405 -15.4249,3.93495 z M 246.06028,50.936532 c 3.02693,-2.12518 3.08013,-6.34219 0.10583,-8.38857 -2.42717,-1.66994 -4.73457,-1.57284 -6.84884,0.28822 -1.45419,1.28004 -1.87797,2.11792 -1.87797,3.71313 0,1.56767 0.6797,2.99365 1.88554,3.95582 1.26967,1.01308 2.31259,1.33308 4.09093,1.25523 1.26944,-0.0556 1.77425,-0.21284 2.64451,-0.82383 z"
       id="path109" />
    <text
       xml:space="preserve"
       transform="matrix(0.94267249,0,0,0.94267249,687.18146,-1024.0634)"
       id="text10"
       style="font-style:normal;font-variant:normal;font-weight:normal;font-stretch:normal;font-size:32px;line-height:32.3959px;font-family:Arial;-inkscape-font-specification:Arial;text-align:start;writing-mode:lr-tb;direction:ltr;white-space:pre;shape-inside:url(#rect10);display:inline;fill:#000000;paint-order:stroke fill markers"><tspan
         x="-385.40234"
         y="1148.8893"
         id="tspan8"><tspan
           style="font-weight:bold;-inkscape-font-specification:'Arial Bold'"
           id="tspan7">CONGRESO
</tspan></tspan><tspan
         x="-385.40234"
         y="1181.2852"
         id="tspan10"><tspan
           style="font-weight:bold;-inkscape-font-specification:'Arial Bold'"
           id="tspan9">DE ESTUDIANTES
</tspan></tspan><tspan
         x="-385.40234"
         y="1213.681"
         id="tspan12"><tspan
           style="font-weight:bold;-inkscape-font-specification:'Arial Bold'"
           id="tspan11">DE INGENIERÍA
</tspan></tspan></text>
    <rect
       style="fill:#000000;stroke-width:0.264583;paint-order:stroke fill markers"
       id="rect1"
       width="2.1392558"
       height="149.03481"
       x="296.8985"
       y="2.1972704"
       rx="3.5654261"
       ry="9.6752882" />
  </g>
</svg>
