<?xml version="1.0" encoding="UTF-8" standalone="no"?>
<!-- Created with Inkscape (http://www.inkscape.org/) -->

<svg
   width="500mm"
   height="500mm"
   viewBox="0 0 500 500"
   version="1.1"
   id="svg1"
   inkscape:version="1.4.2 (f4327f4, 2025-05-13)"
   sodipodi:docname="Logo_Ingenierias_V1.21.svg"
   xmlns:inkscape="http://www.inkscape.org/namespaces/inkscape"
   xmlns:sodipodi="http://sodipodi.sourceforge.net/DTD/sodipodi-0.dtd"
   xmlns="http://www.w3.org/2000/svg"
   xmlns:svg="http://www.w3.org/2000/svg">
  <sodipodi:namedview
     id="namedview1"
     pagecolor="#ffffff"
     bordercolor="#000000"
     borderopacity="0.25"
     inkscape:showpageshadow="2"
     inkscape:pageopacity="0.0"
     inkscape:pagecheckerboard="0"
     inkscape:deskcolor="#d1d1d1"
     inkscape:document-units="mm"
     inkscape:zoom="0.37104026"
     inkscape:cx="933.86092"
     inkscape:cy="1017.4098"
     inkscape:window-width="1920"
     inkscape:window-height="1057"
     inkscape:window-x="-8"
     inkscape:window-y="-8"
     inkscape:window-maximized="1"
     inkscape:current-layer="g117" />
  <defs
     id="defs1">
    <rect
       x="603.70807"
       y="1458.0628"
       width="724.9887"
       height="363.84191"
       id="rect122" />
    <rect
       x="1390.6847"
       y="735.7692"
       width="455.47617"
       height="97.024511"
       id="rect121" />
    <rect
       x="-385.40292"
       y="1123.8673"
       width="444.69568"
       height="393.48831"
       id="rect10" />
    <rect
       x="-385.40292"
       y="1123.8673"
       width="444.69568"
       height="393.48831"
       id="rect10-3" />
    <rect
       x="-385.40292"
       y="1123.8673"
       width="444.69568"
       height="393.48831"
       id="rect10-4" />
  </defs>
  <g
     inkscape:label="Capa 1"
     inkscape:groupmode="layer"
     id="layer1">
    <g
       id="g117"
       transform="matrix(0.62629816,0.19392332,-0.19392332,0.62629816,280.07642,149.87427)">
      <g
         id="g1"
         transform="matrix(0.92737077,-0.0932717,0.0932717,0.92737077,-180.28581,-293.68303)"
         style="fill:#ffffff">
        <path
           style="fill:#ffffff"
           d="m 307.64167,439.1929 c -3.2852,-0.70562 -5.532,-1.74167 -7.28884,-3.36107 -1.14485,-1.05529 -1.97043,-2.73306 -1.53711,-3.12377 0.12484,-0.11257 1.72457,-0.99269 3.55493,-1.95583 l 3.32795,-1.75117 0.7731,0.82365 c 0.4252,0.453 1.23744,1.16549 1.80498,1.58331 0.93108,0.68547 1.23626,0.75968 3.12398,0.75968 3.10713,0 4.33412,-0.39499 5.80925,-1.87012 3.40692,-3.40692 2.26508,-9.38967 -2.07107,-10.8514 -1.46926,-0.49529 -4.47818,-0.4478 -6.04196,0.0953 -0.7276,0.25272 -2.00496,1.04346 -2.83857,1.75719 -1.65545,1.41738 -3.43472,2.01041 -5.20184,1.73376 -0.52548,-0.0823 -1.67996,-0.27294 -2.56549,-0.42371 l -1.61007,-0.27412 -0.48954,-10.95348 c -0.26925,-6.02442 -0.43346,-11.00957 -0.3649,-11.07812 0.2634,-0.2634 21.52441,-3.06035 23.26325,-3.06035 1.61304,0 1.87895,0.0716 2.21146,0.59531 0.459,0.72299 1.07736,5.21116 0.76148,5.52704 -0.2384,0.23839 -3.29425,0.75577 -12.36116,2.09283 -3.04995,0.44976 -5.63956,0.87596 -5.75469,0.94711 -0.22009,0.13602 -0.30156,9.62313 -0.0826,9.62313 0.0697,0 0.93287,-0.58657 1.91822,-1.30348 2.24188,-1.63112 3.94486,-2.30585 6.68803,-2.64981 3.87813,-0.48628 7.81514,0.41227 10.25148,2.33971 3.53077,2.79326 4.91564,5.82642 4.90439,10.7417 -0.007,3.0059 -0.47246,5.09129 -1.55061,6.94539 -1.09255,1.87888 -3.76882,4.37723 -5.70614,5.3268 -3.36222,1.64796 -9.54283,2.49153 -12.92788,1.76447 z"
           id="path98" />
        <path
           style="fill:#ffffff"
           d="m 193.47396,439.68191 c -5.67532,-0.93041 -11.80704,-1.95993 -13.62605,-2.28782 l -3.30729,-0.59618 0.0199,-1.85208 c 0.011,-1.01865 0.1064,-2.40992 0.21208,-3.09172 l 0.19214,-1.23963 4.9473,-3.10952 c 12.75305,-8.01568 16.4769,-10.88278 17.81877,-13.71919 0.81415,-1.72094 1.00952,-3.92611 0.47375,-5.3472 -0.4499,-1.19334 -1.8243,-2.41825 -3.24154,-2.88898 -3.38679,-1.12492 -7.36483,0.64386 -8.38239,3.7271 -0.1755,0.53178 -0.456,0.91668 -0.62332,0.85534 -0.16733,-0.0613 -1.85204,-0.62012 -3.74381,-1.24174 -1.89177,-0.62162 -3.54888,-1.23062 -3.68245,-1.35333 -0.40798,-0.3748 1.67424,-4.21021 3.01192,-5.54789 2.32584,-2.32583 6.4216,-3.7826 10.60448,-3.77176 9.22167,0.0239 15.59834,5.15311 15.59834,12.54686 0,6.10867 -4.85484,11.43257 -16.38888,17.97233 -1.95612,1.10911 -3.59852,2.14236 -3.64977,2.29611 -0.0992,0.29756 2.56886,0.84157 10.77824,2.19765 2.69213,0.44471 5.10315,0.87183 5.35781,0.94916 0.551,0.16733 0.61988,1.86829 0.18641,4.60287 -0.41068,2.59074 -0.44194,2.64942 -1.39487,2.61855 -0.46313,-0.015 -5.4855,-0.78853 -11.16081,-1.71893 z"
           id="path97" />
        <path
           style="fill:#ffffff"
           d="m 260.56428,442.94557 c -0.77162,-0.39219 -0.97802,-1.08024 -1.18796,-3.96012 l -0.15947,-2.18754 4.66172,-4.23333 c 9.39994,-8.53613 13.31007,-12.7799 14.26256,-15.47955 0.21801,-0.61789 0.39637,-1.82759 0.39637,-2.68822 0,-3.29619 -1.95871,-5.20507 -5.37294,-5.23624 -3.0926,-0.0282 -5.31384,1.31693 -6.21824,3.76573 -0.70556,1.9104 -1.14581,2.0852 -4.42825,1.7583 -3.34455,-0.33309 -4.25831,-0.62251 -4.45632,-1.41143 -0.35457,-1.41271 1.5117,-5.2376 3.456,-7.08302 1.17506,-1.1153 3.76223,-2.56562 5.64267,-3.16317 1.2639,-0.40164 2.7017,-0.58131 5.42396,-0.67781 5.72124,-0.20279 9.06396,0.71862 11.76177,3.24211 2.2431,2.09816 3.18735,4.82192 3.18698,9.19309 -1.8e-4,2.13145 -0.0944,2.63192 -0.75672,4.02187 -0.41608,0.87313 -1.31498,2.32623 -1.99755,3.22912 -1.35664,1.79453 -6.14162,6.73401 -10.41526,10.75156 -1.49529,1.40568 -2.53599,2.55578 -2.31268,2.55578 0.22331,0 4.16625,-0.18758 8.76208,-0.41685 4.59584,-0.22927 8.40335,-0.36957 8.46115,-0.31178 0.0578,0.0578 0.30635,1.28717 0.55236,2.73196 0.39239,2.30454 0.4008,2.72355 0.0685,3.41465 l -0.37873,0.78776 -12.17014,0.85086 c -13.54004,0.94662 -15.84652,1.0217 -16.7819,0.54627 z"
           id="path96"
           sodipodi:nodetypes="sscsssssssssssssssssssscsss" />
        <path
           style="fill:#ffffff"
           d="m 228.79583,443.26476 c -3.25956,-0.84673 -5.17913,-1.93597 -7.45468,-4.23012 -1.6379,-1.65127 -2.26081,-2.52626 -3.22015,-4.52327 -1.70745,-3.55428 -1.84973,-4.48804 -1.69161,-11.1013 0.15927,-6.66134 0.34604,-7.53081 2.51403,-11.70346 3.46618,-6.67122 7.91115,-9.44405 15.12026,-9.43223 3.5797,0.006 5.96289,0.51189 8.65145,1.83697 7.14612,3.52202 10.28485,12.96241 8.053,24.22112 -1.29555,6.5355 -4.77533,11.55352 -9.6134,13.86302 -1.19484,0.57037 -2.80338,1.16683 -3.57452,1.32546 -2.22798,0.45831 -6.51515,0.33328 -8.78438,-0.25619 z m 7.80503,-7.13379 c 2.95011,-1.46303 4.81832,-5.57472 5.48702,-12.07627 0.52499,-5.1042 -0.38564,-9.79371 -2.34319,-12.06691 -1.90407,-2.2111 -3.66049,-2.9938 -6.20551,-2.76532 -3.6681,0.32931 -5.84035,2.81123 -7.32534,8.36961 -0.58574,2.19245 -0.68103,3.11213 -0.70155,6.77041 -0.0157,2.79202 0.10042,4.72879 0.34094,5.68855 0.84141,3.35745 2.53945,5.59935 4.89664,6.46498 1.61413,0.59275 4.22587,0.42087 5.85099,-0.38505 z"
           id="path1-54" />
      </g>
    </g>
    <g
       id="g124"
       transform="matrix(-1.2387594,0,0,1.2387594,564.54942,-10.208035)"
       style="fill:#ffffff">
      <path
         style="fill:#ffffff"
         d="m 203.59359,82.328568 c -2.43971,-0.76436 -5.58784,-3.43096 -7.06478,-5.984166 -3.93024,-6.79426 0.0236,-15.20331 8.14282,-17.31809 5.6888,-1.48174 11.91064,1.49388 14.48419,6.92711 0.81078,1.71172 0.85065,1.9447 0.85065,4.97089 0,3.02488 -0.0401,3.25974 -0.84895,4.96724 -1.47623,3.116536 -4.40652,5.493396 -7.89156,6.401136 -1.87444,0.48823 -6.1645,0.50829 -7.67237,0.0359 z"
         id="path116" />
      <path
         style="fill:#ffffff"
         d="m 171.88346,86.372725 c -4.12202,-0.96769 -8.35474,-5.61513 -9.16815,-10.066416 -0.57631,-3.15378 0.70905,-7.10647 3.11624,-9.58297 2.80834,-2.8892 5.63196,-4.11887 9.47846,-4.12782 3.86511,-0.009 6.77186,1.10525 9.3846,3.59738 6.87743,6.55996 3.56521,17.845516 -5.89192,20.075226 -1.82188,0.42954 -5.31044,0.48228 -6.91923,0.1046 z"
         id="path115" />
      <path
         style="fill:#ffffff"
         d="m 235.2895,88.926184 c -2.32921,-0.52572 -4.69292,-1.86541 -6.55353,-3.71437 -4.65759,-4.62844 -4.63671,-11.031396 0.0522,-16.016716 2.28628,-2.43078 3.68519,-3.13416 6.89586,-3.46726 3.56244,-0.36959 5.50017,-0.12033 7.72774,0.99408 4.69494,2.34878 7.15804,6.52121 6.81497,11.544376 -0.47863,7.0079 -7.84054,12.26169 -14.93727,10.65989 z"
         id="path114" />
      <path
         style="fill:#ffffff"
         d="m 144.49562,98.701644 c -6.81357,-1.9178 -10.77568,-8.79539 -8.77329,-15.22906 0.94841,-3.04725 2.96676,-5.33813 6.06209,-6.880606 1.95916,-0.9763 3.40831,-1.28771 6.02908,-1.29557 4.9933,-0.015 9.41354,2.703546 11.50939,7.078506 2.41943,5.05039 0.25158,12.11177 -4.51474,14.70593 -3.26819,1.77877 -7.42832,2.43261 -10.31253,1.6208 z"
         id="path113" />
      <path
         style="fill:#ffffff"
         d="m 180.58356,109.28764 c -8.79135,-1.25043 -19.81803,-4.00787 -23.54426,-5.88772 l -1.31926,-0.66555 1.83428,-1.70397 c 4.23885,-3.937691 12.95166,-8.771161 20.11882,-11.160991 7.9463,-2.64962 14.85431,-3.62776 23.91764,-3.38659 5.89302,0.1568 8.8167,0.50516 14.0296,1.67163 4.38135,0.9804 12.37981,3.79782 14.24769,5.01868 l 0.60119,0.39294 -0.85217,1.23858 c -4.63189,6.732231 -14.40573,12.189761 -25.50134,14.239491 -3.34431,0.61781 -19.70998,0.78715 -23.53219,0.2435 z"
         id="path112" />
      <path
         style="fill:#ffffff"
         d="m 173.83668,132.26043 c -15.15076,-0.5678 -32.16735,-4.19603 -46.56667,-9.92881 -7.81539,-3.11153 -20.00382,-9.05044 -20.89227,-10.17992 -0.62017,-0.78842 -0.51993,-1.09719 1.00549,-3.0973 3.04398,-3.99122 10.8649,-10.918161 16.13025,-14.286481 l 1.932,-1.23593 2.30133,1.95261 c 6.5968,5.597201 19.76119,12.957991 30.16092,16.864301 16.4451,6.17707 36.83794,7.37719 53.63208,3.15626 10.91581,-2.74351 16.72376,-6.16714 29.6654,-17.486921 6.47735,-5.66562 9.47196,-7.87439 11.27887,-8.3191 0.56949,-0.14016 0.72761,-0.0853 0.72761,0.25236 0,0.97764 -3.55698,7.34506 -6.95943,12.458241 -3.55139,5.33698 -8.98055,11.32747 -13.54578,14.94631 -9.29286,7.36639 -21.0296,11.96059 -36.11563,14.137 -4.95801,0.71528 -15.05674,1.05586 -22.75417,0.76738 z"
         id="path111" />
      <path
         style="fill:#ffffff"
         d="m 102.44586,200.39341 c -0.53027,-4.4877 -0.55961,-5.27695 -0.29858,-8.03188 0.62128,-6.55693 2.91419,-12.01078 7.81677,-18.59273 1.54962,-2.08043 2.77341,-3.81822 2.71954,-3.86176 -0.0539,-0.0435 -2.00295,-0.82734 -4.33129,-1.74179 -9.749414,-3.82904 -17.120894,-8.38649 -20.818184,-12.87093 -1.96961,-2.38893 -3.4176,-5.39187 -2.59992,-5.39187 0.14416,0 1.82437,0.96 3.7338,2.13335 7.2888,4.47897 19.904244,10.28946 28.944724,13.33152 8.36281,2.81402 22.7246,6.42198 31.08854,7.81004 4.63319,0.76892 4.7625,0.8016 4.7625,1.20379 0,1.24293 -8.98816,10.98991 -13.09687,14.20256 -9.87255,7.71947 -22.39516,13.03959 -32.54375,13.82593 -1.16417,0.0902 -2.78467,0.229 -3.6011,0.30843 l -1.48444,0.14443 z"
         id="path110" />
      <path
         style="fill:#ffffff"
         d="m 231.98039,209.43965 c -1.28471,-1.01055 -1.16793,-2.5215 0.85938,-11.11845 2.77023,-11.74742 3.9436,-19.22402 5.16965,-32.94062 0.51324,-5.74192 0.80908,-14.4198 0.49159,-14.4198 -0.13172,0 -1.25126,0.60366 -2.48785,1.34147 -2.75348,1.64285 -8.4887,4.45011 -13.09627,6.41032 -8.07064,3.43354 -15.30065,5.44867 -24.76632,6.90283 -7.7166,1.18545 -10.36876,1.35346 -21.13889,1.33905 -8.81596,-0.0118 -10.82721,-0.0919 -14.94896,-0.59528 -21.273,-2.59814 -42.33299,-8.54643 -58.7375,-16.59011 -9.420394,-4.61913 -13.059004,-7.24053 -14.712674,-10.59961 -0.67991,-1.3811 -0.79464,-1.8616 -0.64096,-2.6845 0.52293,-2.80014 4.21316,-8.79955 9.32337,-15.15751 2.37454,-2.95431 2.979234,-3.55978 3.497474,-3.50192 0.34461,0.0385 2.36516,1.08612 4.4901,2.3281 21.7866,12.73378 46.80351,19.79814 72.25832,20.40453 15.02612,0.35796 27.59696,-1.55504 40.41992,-6.15099 9.81612,-3.51825 19.1496,-9.6273 27.44571,-17.96405 5.5865,-5.61388 9.14564,-10.36252 13.09608,-17.472961 5.43743,-9.78691 9.99496,-14.75043 17.331,-18.87487 10.47203,-5.887546 22.42163,-6.301706 35.10654,-1.21675 10.02113,4.01713 17.38866,10.61823 21.25781,19.04642 1.26044,2.745621 1.51529,4.251431 1.4085,8.322271 -0.0913,3.4798 -0.11846,3.62274 -1.06542,5.60578 -5.02931,10.5319 -18.07739,20.62197 -32.89493,25.43761 -7.92365,2.57516 -15.41586,3.66685 -25.05356,3.65053 l -6.00356,-0.0102 1.46632,3.09667 c 2.14861,4.53759 2.38743,5.12155 3.24698,7.93973 1.1516,3.7757 1.45019,6.21881 1.42915,11.6934 -0.0294,7.63698 -0.98533,11.77078 -4.31477,18.65796 -5.02682,10.3983 -12.34085,17.96077 -22.23202,22.98716 -7.4716,3.79685 -14.3891,5.56152 -16.20421,4.13375 z m 69.97533,-105.20177 c 3.17986,-2.23254 3.23575,-6.662611 0.11117,-8.812381 -2.54979,-1.75431 -4.97377,-1.6523 -7.19486,0.30278 -1.52766,1.34471 -1.97284,2.22492 -1.97284,3.90073 0,1.646881 0.71403,3.144901 1.98079,4.155681 1.33382,1.06427 2.42942,1.40044 4.29762,1.31865 1.33358,-0.0584 1.86389,-0.22359 2.77812,-0.86546 z"
         id="path109" />
    </g>
    <g
       id="g2"
       transform="translate(-15.875004)"
       style="fill:#ffffff">
      <path
         style="fill:#ffffff;stroke-width:1.28366"
         d="m 252.22793,431.00301 c -2.29544,-1.0476 -31.29706,-13.9687 -64.44802,-28.71356 -48.43207,-21.54157 -60.18537,-26.8894 -59.82101,-27.21894 0.8052,-0.72832 65.81644,-38.18019 68.65701,-39.55218 l 1.42661,-0.68904 11.96356,6.88815 c 6.57995,3.7885 19.55421,11.33994 28.83168,16.78101 9.27748,5.44107 17.40178,10.19746 18.05399,10.56978 l 1.18585,0.67693 -0.22895,13.61706 c -0.12592,7.4894 -0.22916,21.71378 -0.2294,31.60975 -4.4e-4,16.92545 -0.0366,17.99099 -0.6091,17.96423 -0.33476,-0.0156 -2.48676,-0.88557 -4.78222,-1.93319 z m -25.38914,-32.85274 c 4.78221,-1.6814 9.04851,-3.27135 9.48066,-3.53324 l 0.78575,-0.47616 -0.0902,-16.65069 -0.0902,-16.6507 -2.26069,-0.86499 c -1.24336,-0.47574 -7.97324,-2.84645 -14.95524,-5.26822 l -12.69459,-4.40323 -2.83204,0.877 c -4.22197,1.30745 -27.24705,9.36666 -27.52965,9.63589 -0.13441,0.12809 -0.28774,7.5743 -0.34067,16.54716 -0.076,12.84301 -10e-4,16.42927 0.34777,16.8547 0.4208,0.51208 8.8044,3.58873 22.70307,8.33167 3.44319,1.17498 6.49511,2.20998 6.78204,2.29995 0.57728,0.18106 7.49207,-2.05743 20.69389,-6.69914 z m -34.77967,-1.79395 -11.47729,-4.0388 -0.0907,-13.81579 -0.0908,-13.81579 2.69922,0.94379 c 1.48457,0.51908 3.48176,1.22267 4.4382,1.56351 l 1.73899,0.61974 0.0961,4.84864 c 0.10341,5.22393 0.2574,5.66169 1.99072,5.66169 1.67213,0 1.91089,-0.53634 1.93734,-4.35223 0.0134,-1.93862 0.1308,-3.76787 0.26085,-4.06503 0.20575,-0.47023 0.93529,-0.29724 5.62727,1.33436 l 5.39082,1.87463 0.0909,13.67336 c 0.0856,12.87741 0.0552,13.67141 -0.52169,13.64004 -0.33688,-0.0182 -5.7773,-1.85079 -12.08979,-4.07212 z m 16.87253,-9.53968 0.003,-13.717 9.29916,-3.22401 c 5.11455,-1.77321 10.59209,-3.67515 12.17229,-4.22654 l 2.87317,-1.00254 -0.0907,13.80428 -0.0909,13.80428 -11.30339,3.9491 c -6.21687,2.17201 -11.65555,4.03467 -12.08595,4.13927 l -0.78255,0.19019 z m -6.78645,-18.2476 c -2.48673,-0.88576 -4.7561,-1.69395 -5.04302,-1.79596 -0.45029,-0.16009 -0.44353,-0.22733 0.0494,-0.49124 1.15288,-0.61732 21.25548,-7.94133 21.81031,-7.9462 0.58437,-0.005 10.11244,3.2655 10.5542,3.62284 0.20339,0.16454 -4.67158,1.92511 -20.76266,7.49829 l -2.08677,0.72278 z m -14.86399,-5.17696 c -1.86268,-0.66679 -3.26505,-1.32835 -3.11639,-1.47011 0.32661,-0.31145 21.98553,-7.89033 22.55334,-7.89187 0.21965,-5.7e-4 1.76417,0.47308 3.43226,1.05255 2.53831,0.88177 2.94148,1.11732 2.4724,1.44442 -0.6188,0.43149 -21.21528,8.12651 -21.67043,8.09628 -0.15644,-0.009 -1.80848,-0.56447 -3.67118,-1.23127 z"
         id="path105" />
      <g
         id="g119"
         transform="matrix(1.3144991,0,0,1.2535261,-69.126068,-12.011238)"
         style="fill:#ffffff">
        <path
           style="fill:#ffffff"
           d="m 191.75417,372.50897 c 0,-0.32505 2.36524,-3.94794 4.00098,-6.12837 4.5898,-6.11819 9.44485,-10.79819 15.67481,-15.10965 0.68382,-0.47325 1.31467,-1.04639 1.40188,-1.27365 0.23296,-0.60709 -0.33704,-1.66672 -1.07822,-2.00443 -0.9408,-0.42865 -1.70339,-0.144 -4.3072,1.60778 -6.91684,4.65346 -12.13609,9.95539 -16.79765,17.06373 -1.13828,1.73575 -2.0696,2.94917 -2.0696,2.6965 0,-0.80102 1.5451,-6.61616 2.40685,-9.05839 2.06095,-5.84083 5.33888,-10.51493 9.89627,-14.1114 1.83323,-1.4467 5.14543,-3.45199 5.70393,-3.45331 0.20982,-4.9e-4 3.51623,1.45803 7.34759,3.24115 l 6.9661,3.24204 -0.15858,1.00703 c -0.60732,3.85669 -3.53554,9.18475 -6.81664,12.40324 -4.26509,4.18372 -10.87905,7.45558 -18.9272,9.3631 -2.79239,0.66184 -3.24332,0.73339 -3.24332,0.51463 z"
           id="path103" />
        <path
           id="path104"
           style="fill:#ffffff"
           d="m 142.66326,312.64638 c -0.57711,0.0231 -2.44706,1.08155 -8.29055,4.62296 -4.45655,2.70086 -11.66287,6.93533 -15.88175,9.62221 l -6.00696,3.82545 7.19158,7.4675 c 5.57705,5.79118 20.68451,16.11533 29.26193,21.9817 0.0206,-0.0303 0.0441,-0.0576 0.0705,-0.0822 -4.75808,-6.94961 -6.08439,-11.42461 -5.96026,-18.28687 0.0814,-4.49819 0.40917,-8.0019 0.96145,-8.56778 0.3191,-0.32694 0.98487,-0.33645 4.67789,-0.0653 6.77576,0.49741 12.16165,1.79778 17.6671,4.26572 10.26334,4.60077 16.20036,11.35344 18.62336,21.18158 l 0.86283,3.49934 0.86456,-2.41723 c 1.17793,-3.293 3.11928,-7.15921 4.79338,-9.54652 1.89926,-2.70841 5.51641,-6.18377 8.262,-7.93763 1.25293,-0.80037 2.28527,-1.51902 2.29527,-1.59722 0.009,-0.0782 -13.22845,-6.31549 -29.41764,-13.86068 -16.1892,-7.54518 -29.59855,-13.87037 -29.79866,-14.05575 -0.0375,-0.0347 -0.0936,-0.0526 -0.17603,-0.0493 z" />
        <path
           style="fill:#ffffff"
           d="m 176.9375,372.95685 c -7.56204,-1.65002 -13.60747,-4.4096 -17.85938,-7.28684 -2.18089,-1.4758 -5.58089,-4.94651 -7.10654,-7.25435 -2.86112,-4.32798 -4.37037,-9.18687 -4.59074,-14.7795 -0.0809,-2.05292 -0.0621,-4.41285 0.0418,-5.24429 l 0.18888,-1.51171 1.76455,0.17787 c 3.2189,0.32448 8.69442,1.43003 11.19981,2.26133 10.06849,3.34078 16.64439,9.22058 19.42934,17.37264 1.02852,3.01068 2.29292,10.41752 1.77004,10.3689 -0.11415,-0.0106 -1.16005,-1.32491 -2.32422,-2.92066 -3.93569,-5.39472 -13.44753,-13.98433 -18.42152,-16.63544 -1.69813,-0.90509 -2.1884,-0.88655 -3.13253,0.11842 -1.02275,1.08867 -0.61223,1.71299 2.53498,3.85526 5.37195,3.65664 9.75814,7.64492 13.37552,12.16214 1.94691,2.4312 6.41051,10.02515 6.41051,10.46797 0,0.27082 0.0436,-0.42643 -3.2805,-1.15174 z"
           id="path102"
           sodipodi:nodetypes="ssssscsssssssssss" />
        <path
           style="fill:#ffffff"
           d="m 235.54271,383.3256 c -14.91668,-0.48966 -25.84476,-1.91909 -34.92146,-3.5955 -4.05627,-0.74916 -10.91312,-2.35062 -11.17172,-2.60922 -0.41275,-0.41275 0.61365,-1.23261 3.7033,-1.80304 12.4896,-2.3059 21.18529,-6.05873 26.67435,-13.34325 1.89357,-2.51297 3.66987,-5.94572 4.48485,-8.66712 0.32448,-1.08349 0.62009,-2.00705 0.65693,-2.05236 0.0368,-0.0453 5.16944,2.30039 11.40578,5.21265 l 11.3388,5.29504 0.0786,2.32797 c 0.0919,2.72266 -0.37735,18.85455 -0.55354,19.03074 -0.16539,0.16539 -8.46352,0.31019 -11.69584,0.20409 z"
           id="path99"
           sodipodi:nodetypes="sssssssscssss" />
      </g>
      <path
         id="rect20"
         style="stroke-width:0.314726;paint-order:stroke fill markers;fill:#ffffff"
         d="m 337.45529,326.18992 -1.40007,0.76824 c -2.11578,1.16082 -21.3381,12.99357 -46.99748,28.9302 l -8.58742,5.33319 c -0.34793,0.0844 -0.68365,0.29756 -1.00082,0.62201 l -13.40277,8.32402 -0.23648,4.01101 c -0.40014,6.79318 -0.87505,43.54791 -0.89172,68.98627 l -0.016,24.18021 5.47763,-0.21202 c 10.78771,-0.41729 25.88999,-4.15248 35.4313,-6.52177 18.92596,-4.69967 36.8765,-12.08535 47.41839,-20.01166 11.54048,-8.67711 19.61383,-15.98434 25.38122,-26.75581 2.59957,-4.85518 4.0696,-8.24287 6.98088,-16.08566 5.20402,-14.01934 7.479,-17.81347 13.41035,-22.36366 6.16591,-4.73015 8.19002,-5.19603 43.27596,-9.96172 34.86446,-4.73563 37.17394,-5.14644 42.40724,-7.54004 2.83501,-1.2967 3.7358,-1.93415 6.63707,-4.69713 3.7581,-3.57897 6.20281,-7.05062 7.53229,-10.69619 1.30798,-3.58663 1.31883,-3.57365 -4.66846,-5.80113 -2.82151,-1.04968 -7.84867,-2.99378 -11.17167,-4.32032 l -6.04199,-2.41156 -6.75325,3.79955 c -3.71432,2.08996 -7.81338,4.30903 -9.10871,4.93109 l -2.35487,1.13098 -11.4335,-6.2859 c -6.28832,-3.45741 -11.61664,-6.21903 -11.84104,-6.13686 -0.22438,0.0821 -4.22573,2.2718 -8.89167,4.86641 -4.66595,2.5946 -9.89966,5.44058 -11.63049,6.32415 l -3.14692,1.60619 -12.15595,-6.49511 c -6.68579,-3.57228 -12.32274,-6.55974 -12.52693,-6.63908 -0.20415,-0.0793 -4.66503,2.29774 -9.91253,5.28202 -5.2475,2.98426 -10.49043,5.92708 -11.65113,6.54009 l -2.11012,1.11468 -4.43728,-2.22653 c -2.44053,-1.22467 -8.29548,-4.33302 -13.01051,-6.90734 z m -18.23984,28.34025 c 0.32902,0.0225 0.49966,0.0776 0.70003,0.17772 0.96855,0.48492 1.33709,1.64605 0.79262,2.49759 -0.37123,0.58059 -0.85019,0.76107 -2.23872,0.84191 -2.71721,0.15832 -3.37747,0.21481 -4.63251,0.39705 -2.95386,0.42898 -5.21616,1.12492 -8.23887,2.53473 -8.41715,3.92588 -13.08156,10.13061 -15.05173,20.02129 -0.29866,1.49938 -0.35995,2.21217 -0.43168,5.0503 l -0.0831,3.30519 -0.43818,0.93527 c -0.58707,1.25291 -1.97423,3.69288 -4.54467,7.99503 -2.28097,3.81765 -2.59211,4.51546 -2.26406,5.07281 0.44125,0.74961 1.27357,1.03905 3.70602,1.29013 1.44956,0.1497 2.1345,0.40533 2.5383,0.94708 0.48404,0.64944 0.54785,1.17612 0.35622,2.94414 -0.16893,1.55844 -0.25157,2.78478 -0.21587,3.20398 0.007,0.1047 0.24715,0.48304 0.52903,0.84077 0.64656,0.82058 0.72989,1.19453 0.53137,2.38005 -0.14876,0.88825 -0.13987,1.00485 0.13034,1.70181 1.1659,3.00627 1.06848,2.55639 0.98841,4.55203 -0.0398,0.99456 -0.10835,2.32039 -0.15214,2.94585 l -0.0797,1.13714 0.483,0.50954 c 0.31245,0.3298 0.74511,0.60551 1.22493,0.7806 1.03998,0.37954 3.86946,0.4558 7.01748,0.18896 2.69362,-0.22834 4.07175,-0.2476 4.89083,-0.0675 2.24321,0.49317 3.92752,2.32417 4.58183,4.98113 0.50454,2.04898 0.71064,6.33769 0.34499,7.17224 -0.25995,0.59325 -0.88956,0.93301 -1.73093,0.93358 -0.58705,0 -0.7382,-0.0546 -1.13527,-0.41168 h -0.001 c -0.25195,-0.22659 -0.48852,-0.54926 -0.52606,-0.71706 -0.0374,-0.1678 -0.13155,-1.34339 -0.2082,-2.61232 -0.24758,-4.09696 -0.89824,-5.77125 -2.31004,-5.94284 -0.27776,-0.0337 -1.89948,0.0552 -3.604,0.19741 -4.76819,0.39762 -6.28079,0.34031 -8.37865,-0.31777 -2.02485,-0.63517 -3.47215,-1.94159 -4.01801,-3.62688 -0.30617,-0.94523 -0.32667,-1.70549 -0.10848,-4.06219 0.20305,-2.19435 0.0726,-3.04246 -0.63574,-4.12685 l -0.49954,-0.76487 -0.0135,-1.49652 c -0.0154,-1.60453 -0.0407,-1.70541 -0.63929,-2.5471 -0.3646,-0.51273 -0.39221,-0.63193 -0.39221,-1.68381 0,-0.62253 0.0487,-1.66928 0.10848,-2.32607 l 0.10859,-1.19398 -0.95129,-0.16195 c -1.28404,-0.21882 -2.63802,-0.67136 -3.39461,-1.13435 -1.34082,-0.82049 -2.25271,-2.13664 -2.41976,-3.49192 -0.15424,-1.25098 0.1432,-1.95683 2.54773,-6.04239 3.01764,-5.12729 3.76589,-6.43783 4.37835,-7.66995 l 0.52665,-1.0601 0.0904,-3.11738 c 0.12143,-4.20815 0.63483,-7.03897 1.96387,-10.83173 1.55879,-4.44831 3.89181,-8.06453 7.29881,-11.3126 1.93375,-1.84355 3.80743,-3.24734 5.98542,-4.48454 4.3901,-2.49381 10.36606,-4.11875 15.86321,-4.31357 0.83487,-0.0296 1.32228,-0.04 1.65132,-0.0174 z m 36.15119,3.33669 c 0.59791,0.0131 1.1918,0.0976 1.76512,0.25983 1.1216,0.31752 2.5704,1.15521 3.35038,1.93745 0.69107,0.69307 1.38049,1.84344 1.70969,2.85304 0.42809,1.31284 0.39684,3.19195 -0.0718,4.33775 -0.91009,2.22465 -2.86905,3.92874 -5.19453,4.51885 -1.49448,0.37926 -3.97956,0.16997 -5.23523,-0.44091 l -0.47887,-0.2334 -2.93167,2.83054 c -1.6125,1.55663 -6.24228,6.01854 -10.2882,9.9156 l -7.35657,7.08562 0.29488,0.39423 c 0.16193,0.21694 0.47231,0.70853 0.68941,1.09219 l 0.39456,0.69737 6.14641,-1.28283 c 3.38056,-0.70568 7.82368,-1.62537 9.87359,-2.04374 2.04991,-0.41837 3.82183,-0.7863 3.93777,-0.81773 0.13546,-0.0369 0.28811,-0.35667 0.42699,-0.89589 0.59809,-2.3223 2.28767,-4.12274 4.7245,-5.03514 1.43657,-0.53788 3.27028,-0.63794 4.5971,-0.25082 1.84797,0.53914 3.35287,1.70103 4.39719,3.39574 1.73465,2.81504 1.26535,6.44085 -1.104,8.53268 -0.96709,0.85385 -1.67502,1.25082 -3.03015,1.70068 -1.27534,0.42333 -2.9742,0.4887 -4.15009,0.15915 -1.87622,-0.52583 -3.70559,-1.84963 -4.62305,-3.34568 -0.36242,-0.59096 -0.56564,-0.80821 -0.71597,-0.76431 -0.11546,0.0337 -4.50538,0.93518 -9.75565,2.00326 -5.25028,1.06812 -9.67292,1.97241 -9.82762,2.00944 -0.23073,0.0552 -0.29783,0.19363 -0.37332,0.76993 -0.11547,0.88152 -0.52061,2.14793 -0.94184,2.94189 -0.31308,0.59016 -0.31626,0.61582 -0.0837,0.82559 0.30694,0.27688 14.05055,10.893 14.25724,11.01283 0.0853,0.0493 0.5264,-0.10302 0.98076,-0.33856 3.25066,-1.68477 6.53045,-1.28413 9.08099,1.10905 2.96877,2.7856 3.01419,7.32363 0.10135,10.10119 -0.65433,0.62398 -1.14703,0.94753 -2.18151,1.43242 -2.36892,1.11037 -4.06447,1.12331 -6.35869,0.0496 -2.26538,-1.06031 -3.70473,-2.85889 -4.26863,-5.33321 -0.26069,-1.14393 -0.206,-2.10413 0.18932,-3.31194 0.19505,-0.59597 0.22598,-0.84745 0.11913,-0.97013 -0.17784,-0.20434 -6.08255,-4.77306 -6.16879,-4.77306 -0.0954,0 -6.62292,8.15677 -6.62292,8.27621 0,0.0115 0.23404,0.46523 0.51958,1.00726 0.28552,0.54203 0.61727,1.40601 0.73719,1.92002 0.47647,2.04236 -0.0758,4.52551 -1.29981,5.84667 -0.18344,0.19795 -0.21845,0.32293 -0.12268,0.43697 0.0736,0.0878 1.04615,1.67429 2.16144,3.52622 1.11526,1.85196 2.3971,3.95667 2.8479,4.67689 0.6455,1.03124 0.83049,1.44188 0.87225,1.93294 0.0584,0.68663 -0.21805,1.26235 -0.77258,1.60846 -0.44776,0.27945 -1.28259,0.35357 -1.73858,0.15522 h -5.9e-4 c -0.51258,-0.22341 -0.69633,-0.44348 -1.36704,-1.63882 -0.3079,-0.54874 -1.56376,-2.66961 -2.7907,-4.71287 -1.73481,-2.88902 -2.27623,-3.69772 -2.43627,-3.63814 -1.37277,0.51106 -3.49523,0.54571 -4.87077,0.0799 -2.0557,-0.69637 -3.94797,-2.53178 -4.68739,-4.54641 -0.3562,-0.9705 -0.48563,-2.85701 -0.26537,-3.86872 0.42358,-1.94573 1.95269,-3.81047 3.86349,-4.71176 1.90448,-0.89833 3.68128,-1.05503 5.57611,-0.49264 0.45512,0.13502 0.86512,0.20506 0.91117,0.15577 0.33435,-0.35725 6.52501,-8.25953 6.52501,-8.32908 0,-0.0485 -0.0842,-0.15042 -0.18696,-0.22663 -0.10269,-0.0761 -1.3402,-1.02891 -2.75001,-2.11686 l -2.56304,-1.97795 -1.07513,0.51289 c -1.46996,0.70147 -2.49537,0.93526 -4.08286,0.93021 -1.07093,-0.003 -1.49757,-0.0657 -2.35429,-0.34306 -3.25385,-1.05326 -5.39706,-3.33997 -6.08922,-6.49736 -0.22613,-1.03157 -0.19677,-2.9611 0.0595,-3.9154 0.35511,-1.3218 1.19218,-2.6903 2.29946,-3.75905 0.79909,-0.77129 1.22346,-1.06298 2.22809,-1.5331 1.55825,-0.72917 2.49417,-0.95608 3.9425,-0.95608 1.30738,0 2.13364,0.14459 3.28494,0.57479 l 0.80854,0.30199 3.38458,-3.22757 3.38519,-3.22759 -3.10977,-2.92502 -3.10917,-2.92446 -0.73069,0.28063 c -2.13131,0.81872 -4.78064,0.58721 -6.69607,-0.58489 -1.49988,-0.91782 -3.07566,-3.11274 -3.38577,-4.7157 -0.27756,-1.43466 -0.0119,-3.24712 0.66227,-4.52446 1.82877,-3.46338 6.40075,-4.85185 10.11723,-3.07238 1.10092,0.52712 2.49016,1.90793 3.12274,3.10387 0.51647,0.97643 0.87023,2.28957 0.87401,3.24333 0.001,0.77502 -0.43799,2.3667 -0.86164,3.10893 l -0.34675,0.60683 0.39454,0.47464 c 0.51713,0.62178 4.81563,4.63908 5.34785,4.99803 l 0.41282,0.27838 4.42609,-4.33326 c 2.43441,-2.38311 4.96536,-4.86617 5.62446,-5.51822 l 1.19839,-1.18553 -0.31671,-0.5894 c -0.98057,-1.82609 -0.94227,-4.35524 0.0938,-6.21503 1.34194,-2.40875 4.24609,-3.92004 7.0552,-3.85804 z m -0.58504,3.53748 c -0.17816,0.007 -0.35333,0.0296 -0.52311,0.0659 -1.81927,0.38825 -2.95523,1.74301 -2.95523,3.52509 0,1.46842 0.91639,2.67826 2.41915,3.19328 0.68151,0.2336 2.15372,0.17848 2.81193,-0.10511 2.12008,-0.91328 2.84052,-3.29627 1.55576,-5.14592 -0.67066,-0.96556 -2.06135,-1.58706 -3.3085,-1.5331 z m -29.94639,5.08799 c -0.81507,0.002 -1.64529,0.27236 -2.35195,0.86553 -0.95689,0.80322 -1.19077,1.32859 -1.19188,2.67811 -10e-4,1.04297 0.0301,1.1803 0.39512,1.74569 0.40967,0.63474 1.34261,1.33129 2.07064,1.54546 0.2255,0.0663 0.85871,0.10418 1.40656,0.0838 0.79902,-0.0296 1.11402,-0.10271 1.59232,-0.37005 1.24101,-0.69352 1.87707,-1.87427 1.75982,-3.26696 -0.16791,-1.99487 -1.88751,-3.28625 -3.68063,-3.28158 z m 34.8018,19.6293 c -1.46528,0.0593 -2.91822,0.95677 -3.45241,2.33845 -0.22145,0.57281 -0.20618,1.69552 0.0324,2.36317 0.34968,0.9787 1.36962,1.91823 2.40913,2.21978 0.56654,0.16433 1.7609,0.12457 2.38968,-0.0799 1.99665,-0.6488 2.91948,-2.83224 2.00396,-4.74101 -0.43638,-0.90988 -0.86641,-1.35267 -1.71203,-1.76422 -0.52273,-0.25442 -1.09771,-0.35951 -1.67079,-0.33632 z m -35.63986,5.1926 c -1.0493,-0.0372 -2.13648,0.24705 -3.11624,0.88802 -2.06761,1.35264 -2.74229,4.11033 -1.56287,6.386 1.09732,2.11731 3.49162,3.13421 5.83918,2.4796 1.42159,-0.39641 2.61061,-1.37061 3.24245,-2.65562 0.30718,-0.62474 0.345,-0.85063 0.345,-2.07919 0,-1.34317 -0.0121,-1.40248 -0.49422,-2.33168 -0.86831,-1.67543 -2.5086,-2.62549 -4.2533,-2.68713 z m 26.62966,22.876 c -1.54681,-0.0308 -3.08466,0.84296 -3.64053,2.25971 -0.7658,1.95185 0.16927,4.01863 2.15906,4.77306 0.91526,0.34699 2.24101,0.27796 3.15047,-0.16367 1.2398,-0.60205 1.8957,-1.56179 1.98745,-2.91039 0.11035,-1.62295 -0.65959,-2.92093 -2.14257,-3.61284 -0.48153,-0.22465 -0.99829,-0.33558 -1.51388,-0.34587 z m -25.87831,4.9446 c -1.44676,-0.0378 -2.80928,0.74385 -3.42233,2.05948 -0.32587,0.69936 -0.34304,2.12713 -0.0342,2.86204 0.29513,0.70218 1.46797,1.71842 2.26348,1.96162 0.82251,0.25148 2.15712,0.17849 2.83495,-0.1552 0.61854,-0.30452 1.38546,-1.0438 1.70024,-1.6394 0.34023,-0.64372 0.39739,-1.71169 0.13743,-2.56452 -0.3097,-1.01589 -1.37985,-2.0388 -2.47283,-2.36375 -0.33465,-0.0994 -0.67284,-0.15157 -1.00672,-0.16027 z"
         sodipodi:nodetypes="csccccccccsssssssssscccccccsccssscccccccscsssccsssssscsscssccsscsscccccscssssccsssccssscccsssscccsssssccccccsccscssssssssssssssccsssssscssssscssssccssscsssscsssccccscsssccccccssscssccccsccsccsccccsscsccsscssccssssscscsssssssssscsssssssssssssssss" />
      <path
         id="rect18"
         style="stroke-width:0.294867;paint-order:stroke fill markers;fill:#ffffff"
         d="m 112.92335,248.16635 c -0.20657,-0.16284 -90.447213,0.49735 -90.712305,0.66363 -0.03003,0.0189 -2.735527,0.0999 -3.004988,1.09938 -0.636748,2.36173 -0.872631,17.07755 -0.230686,23.75651 2.212013,23.01329 11.93554,55.3662 21.996734,76.66835 4.085492,8.65007 14.740532,24.48548 21.96473,34.70545 3.966932,5.61195 10.682456,12.96973 11.400202,12.01092 0.63826,-0.85262 -0.540457,0.0228 -0.205013,-0.0506 0.713917,-0.15591 12.140937,-6.66538 27.810056,-15.70202 l 11.07092,-6.38487 0.0921,-63.2757 c 0.0506,-34.80162 -0.0314,-63.37279 -0.18166,-63.49112 z m -40.82198,21.21582 h 13.574807 l 0.380982,0.24239 c 0.685233,0.43654 0.965781,1.33912 0.615705,1.98076 -0.390574,0.71583 -1.022849,0.98306 -2.324789,0.98306 h -0.879907 v 7.0412 7.0412 l 2.047599,2.92558 c 1.12626,1.60913 3.00175,4.34423 4.167759,6.07838 2.029687,3.01864 7.67453,11.36072 10.740514,15.87193 4.48753,6.60276 5.33835,7.99715 5.93237,9.72607 0.98318,2.86154 0.98893,5.48498 0.0182,8.28353 -0.53385,1.5392 -1.07381,2.5412 -1.95327,3.62409 -1.81648,2.23664 -4.14995,3.84344 -6.887749,4.74378 -2.330724,0.7665 -0.827207,0.7217 -24.937518,0.74744 -11.92804,0.0127 -22.091051,-0.006 -22.584981,-0.041 -3.374648,-0.23969 -6.742041,-1.82506 -9.282051,-4.37039 -1.167295,-1.16973 -1.903039,-2.20665 -2.524124,-3.55715 -0.786846,-1.71092 -1.046423,-2.8434 -1.10813,-4.83435 -0.106055,-3.41923 0.543889,-5.35631 3.023051,-9.01465 0.623635,-0.92026 1.895467,-2.8039 2.826652,-4.18533 1.778657,-2.63864 6.058585,-8.9398 9.34928,-13.76464 1.071043,-1.57038 2.740401,-4.0336 3.709516,-5.4738 0.969095,-1.44023 2.399886,-3.54702 3.17992,-4.68195 l 1.418337,-2.06343 v -7.0485 -7.04796 l -0.924713,-0.002 c -1.461454,-0.004 -2.192068,-0.45134 -2.393208,-1.46617 -0.09792,-0.4941 0.340075,-1.28924 0.850422,-1.54322 0.371265,-0.18477 1.060109,-0.19459 13.965228,-0.19459 z m -8.359097,3.20621 v 7.41576 7.41519 l -1.045025,1.5359 c -0.57455,0.84466 -1.893435,2.78631 -2.931056,4.31471 -1.037612,1.52839 -3.24988,4.77484 -4.916135,7.21441 -3.539127,5.18159 -7.765115,11.40629 -12.545117,18.47863 -1.016366,1.50377 -1.408372,2.27376 -1.840605,3.61564 -0.277898,0.86273 -0.302552,1.09042 -0.308439,2.80917 -0.0065,1.64003 0.02475,1.97376 0.248283,2.70963 1.207363,3.97402 5.039908,7.05388 9.384066,7.54172 1.251062,0.1405 43.179803,0.13846 44.38325,-0.003 v 5.4e-4 c 3.986928,-0.46593 7.225495,-2.63021 8.869905,-5.92707 0.74385,-1.49136 0.9862,-2.57612 0.97782,-4.37545 -0.006,-1.65203 -0.17525,-2.44933 -0.83098,-3.9514 -0.50731,-1.16205 -0.63762,-1.3615 -7.762926,-11.86711 -0.677784,-0.99933 -2.140261,-3.16362 -3.249523,-4.8096 -3.107201,-4.6106 -6.932948,-10.22544 -9.3363,-13.70221 -1.198419,-1.73369 -2.253268,-3.28925 -2.34424,-3.45705 -0.141148,-0.26026 -0.165726,-1.38108 -0.165726,-7.63171 v -7.32689 h -8.293624 z m 17.343899,19.36892 c 0.204407,0.0127 0.334071,0.0669 0.549059,0.17153 0.303938,0.14786 0.524835,0.35794 0.659338,0.6282 0.184209,0.37013 0.189765,0.49996 0.0637,1.46335 -0.380286,2.90639 -1.458392,5.18998 -3.100305,6.56823 -0.269335,0.22605 -0.490311,0.43471 -0.497153,0.4679 v 5.6e-4 5.7e-4 5.6e-4 5.6e-4 l 5.83e-4,5.6e-4 5.94e-4,5.8e-4 5.83e-4,5.5e-4 5.94e-4,5.6e-4 c 0.03211,0.029 0.38436,0.079 0.810312,0.11417 1.066874,0.0879 2.274369,0.41625 3.428794,0.93189 3.445307,1.53885 5.473793,4.47896 6.066738,8.79305 0.536673,3.90454 -0.940644,9.17319 -3.67649,13.11171 -2.464212,3.54746 -5.211256,5.31126 -8.605011,5.52441 -1.258652,0.079 -2.2459,-0.0817 -3.491898,-0.56745 -0.509281,-0.19855 -1.069859,-0.36108 -1.245548,-0.36108 -0.175684,0 -0.643684,0.14065 -1.040322,0.31214 -1.491153,0.64475 -3.257357,0.79929 -5.038796,0.44092 -1.02628,-0.20647 -2.54255,-0.82752 -3.41051,-1.39699 -1.321415,-0.86699 -2.92187,-2.57957 -4.096393,-4.38331 -1.348623,-2.07116 -2.6021,-5.04577 -3.128622,-7.4242 -0.333892,-1.50823 -0.425523,-4.5276 -0.180454,-5.94846 0.457483,-2.65272 1.732693,-5.07986 3.436463,-6.54064 1.269598,-1.08856 3.223142,-2.00341 5.070062,-2.37389 1.600368,-0.32105 3.848237,-0.15221 5.567222,0.41786 l 0.798515,0.2649 -0.07316,-0.23114 c -0.312669,-0.98585 -1.526502,-3.43416 -2.101856,-4.23935 -0.517165,-0.72377 -1.511594,-1.68607 -2.214509,-2.14273 -0.788936,-0.51258 -0.999032,-0.81652 -0.999032,-1.44648 0,-0.4378 0.05358,-0.5488 0.448796,-0.92571 0.430562,-0.41058 0.473302,-0.42613 1.040316,-0.3813 1.403088,0.11097 3.672335,2.17406 5.030557,4.5734 0.452236,0.79891 0.653443,1.02593 0.653443,0.73729 0,-0.23474 0.918566,-1.8655 1.377059,-2.44472 1.663076,-2.10108 3.934706,-3.30027 6.901814,-3.64319 0.512028,-0.0591 0.791092,-0.0876 0.995497,-0.0748 z m -1.977418,3.19442 c -0.04345,-3.5e-4 -0.108805,0.013 -0.202284,0.0343 -0.668349,0.15213 -1.910421,0.80046 -2.491693,1.30083 -0.967586,0.83291 -1.746082,2.13283 -1.975062,3.29675 -0.07624,0.38766 -0.06876,0.4004 0.187537,0.32957 0.146827,-0.0406 0.619425,-0.23037 1.050933,-0.42179 1.672441,-0.74192 2.984855,-2.35875 3.464773,-4.26971 0.05049,-0.20118 0.06127,-0.26921 -0.03421,-0.26994 z m -13.461592,9.03319 c -1.221017,0.002 -1.51885,0.0383 -2.321247,0.29132 -1.095336,0.3453 -2.38356,1.13462 -3.109744,1.90484 -2.153221,2.28382 -2.810908,6.12512 -1.732087,10.12031 0.881708,3.26528 2.616229,6.3692 4.639545,8.30207 1.594691,1.52342 3.004073,2.11139 4.885473,2.03926 0.819109,-0.0313 1.096171,-0.0944 1.875983,-0.43024 1.723661,-0.74214 2.591753,-0.75723 4.131192,-0.0703 1.345883,0.60062 2.840844,0.68977 4.20608,0.25027 2.686536,-0.86491 5.490562,-4.28617 6.920097,-8.44213 0.773655,-2.24919 0.959294,-3.26962 0.958348,-5.26796 -0.0022,-2.38432 -0.336051,-3.76955 -1.292142,-5.34389 -0.892019,-1.4688 -2.265447,-2.53242 -3.950711,-3.05998 -0.804228,-0.25178 -1.104547,-0.2887 -2.377278,-0.29246 -1.660621,-0.005 -2.256976,0.116 -4.035061,0.81997 -1.083039,0.42878 -1.162344,0.44389 -2.353678,0.44373 -1.180806,-1.1e-4 -1.282746,-0.019 -2.415607,-0.44373 -1.89272,-0.7096 -2.448678,-0.8226 -4.029163,-0.82109 z"
         sodipodi:nodetypes="scsssssscccsscccssccccssssssscssssssscccccssccccccssssccsccscsssssscccssscsccccccccscsssssssssssssscccsssssssssssscsssscssccsssscssscsscsscc" />
      <path
         id="rect19"
         style="stroke-width:0.316181;paint-order:stroke fill markers;fill:#ffffff"
         d="m 179.12746,234.59011 c -9.84412,-0.008 -13.00447,0.10145 -16.52022,0.57759 -10.19834,1.38134 -17.21984,3.93422 -28.47395,10.35314 -2.74871,1.56774 -6.85738,3.74299 -9.12998,4.8338 l -4.13181,1.98356 v 59.87097 c 0,32.92917 0.11718,59.80493 0.26066,59.72419 0.2606,-0.14673 30.60293,-17.71592 58.51722,-33.88379 8.12973,-4.70875 14.92476,-8.68314 15.10009,-8.83187 0.35577,-0.3018 1.41527,-44.05615 1.80345,-74.4685 l 0.25065,-19.61749 -2.75179,-0.26489 c -1.51335,-0.1457 -8.22923,-0.27017 -14.92432,-0.27671 z m -20.06759,25.67394 c 5.29726,0 5.75073,0.0138 6.01136,0.17659 0.51124,0.31942 0.61933,0.60636 0.81152,2.14948 0.10052,0.80757 0.29091,2.28132 0.42227,3.27539 l 0.23824,1.80754 1.4219,0.42293 c 1.93989,0.57734 2.84763,0.92167 3.80805,1.44422 l 0.81562,0.44373 1.53986,-1.08879 c 0.84705,-0.59893 2.00644,-1.46035 2.57662,-1.91439 0.57021,-0.45406 1.13599,-0.88038 1.25679,-0.94708 0.27957,-0.15434 0.84654,-0.1615 1.14234,-0.0146 0.2563,0.12729 4.63662,4.21817 6.69197,6.24991 1.29772,1.28284 1.33696,1.33415 1.33696,1.75805 0,0.50623 -0.20271,0.82902 -1.22316,1.94477 -0.74601,0.8157 -3.02822,3.7102 -2.99832,3.80291 0.009,0.032 0.25576,0.43369 0.54555,0.89198 0.55824,0.88296 1.16714,2.27702 1.64126,3.75904 0.15811,0.49422 0.29455,0.90846 0.30315,0.92063 0.0465,0.066 2.8511,0.44431 4.29637,0.57928 1.95987,0.18304 2.34423,0.26582 2.64386,0.57083 0.45287,0.46105 0.46237,0.58694 0.45824,6.08793 -0.003,4.57454 -0.0258,5.30293 -0.16808,5.56548 -0.33204,0.61227 -0.74499,0.72791 -3.40524,0.95326 -1.8148,0.15373 -3.86785,0.39868 -3.91952,0.4679 -0.0125,0.0168 -0.2253,0.59248 -0.47298,1.2789 -0.50235,1.3921 -1.21436,2.99127 -1.6631,3.73542 l -0.29607,0.49098 1.69555,2.11573 c 0.93266,1.16352 1.89074,2.35075 2.12903,2.6382 0.35461,0.42782 0.43346,0.59986 0.43346,0.94876 0,0.35835 -0.0711,0.50398 -0.44527,0.91445 -0.8837,0.96976 -7.36141,7.15089 -7.63731,7.28753 -0.68768,0.34057 -0.80415,0.28039 -3.32091,-1.70744 -0.76477,-0.60404 -1.77247,-1.37216 -2.23931,-1.70742 l -0.84866,-0.60965 -0.5284,0.32114 c -0.96099,0.58512 -1.82683,0.94917 -3.69245,1.55164 -1.01488,0.32774 -1.85991,0.61004 -1.8778,0.62707 -0.0528,0.0504 -0.53683,3.08837 -0.76196,4.78319 -0.11476,0.86398 -0.27885,1.69971 -0.36447,1.85759 -0.28661,0.52852 -0.34288,0.53376 -6.22721,0.55002 -2.99468,0.008 -5.57719,-0.0116 -5.73832,-0.0428 -0.82069,-0.16167 -1.01258,-0.56771 -1.17952,-2.48861 -0.13666,-1.57257 -0.59344,-4.59965 -0.70887,-4.69881 -0.0436,-0.0377 -0.50824,-0.18344 -1.03208,-0.32449 -1.45334,-0.39132 -3.13182,-1.05456 -4.12238,-1.6287 l -0.89288,-0.51741 -0.41874,0.37568 c -0.23033,0.20673 -0.9134,0.72686 -1.51803,1.15572 -0.60463,0.42884 -1.47606,1.08087 -1.93675,1.44929 -1.57272,1.25776 -1.88023,1.37797 -2.54007,0.99432 -0.37267,-0.21668 -5.46009,-5.01333 -7.0794,-6.67507 -0.92148,-0.94558 -1.0079,-1.06818 -1.0079,-1.42962 0,-0.50357 0.0757,-0.63216 1.04622,-1.77998 1.03671,-1.2259 2.86457,-3.48424 3.03724,-3.75286 0.11751,-0.1828 0.0881,-0.28364 -0.23414,-0.80816 -0.65546,-1.06651 -2.06946,-4.32812 -2.06946,-4.77361 0,-0.0827 -0.0352,-0.15041 -0.0786,-0.15073 -0.043,0 -0.36103,-0.0461 -0.70651,-0.10177 -0.3455,-0.0557 -1.77571,-0.23303 -3.17819,-0.39424 -2.66339,-0.30612 -2.88432,-0.3659 -3.23305,-0.87339 -0.17081,-0.24855 -0.18459,-0.68233 -0.18459,-5.78088 v -5.51259 l 0.26126,-0.26714 c 0.14398,-0.14675 0.34041,-0.30716 0.43643,-0.35656 0.21426,-0.11022 4.63204,-0.75616 5.81144,-0.84978 l 0.85573,-0.068 0.64932,-1.65852 c 0.35743,-0.91227 0.90918,-2.18398 1.22552,-2.82604 l 0.57502,-1.16752 -0.72424,-0.87903 c -0.39831,-0.48367 -1.05808,-1.30611 -1.46614,-1.82779 -0.40803,-0.52167 -1.02967,-1.30805 -1.38178,-1.74735 -0.6884,-0.85888 -0.78551,-1.19922 -0.49126,-1.72714 0.1604,-0.28777 7.36853,-7.16102 7.80421,-7.44161 0.14239,-0.0917 0.44983,-0.16648 0.68353,-0.16648 0.38533,0 0.58124,0.11684 2.09718,1.2519 0.91955,0.68852 2.1434,1.62111 2.71993,2.07299 l 1.048,0.82166 0.62691,-0.37062 c 0.73233,-0.43302 2.16242,-0.98859 4.10765,-1.59607 1.29861,-0.40557 1.38612,-0.4488 1.3871,-0.68838 0,-0.14067 0.11664,-1.0169 0.25772,-1.94702 0.14111,-0.93014 0.30903,-2.23007 0.3733,-2.88901 0.12716,-1.30388 0.29501,-1.76275 0.76493,-2.09043 0.29013,-0.20234 0.40075,-0.20641 6.02435,-0.20641 z m 4.37302,2.29682 c -0.006,0 -1.97455,0.0138 -4.37067,0.0309 l -4.35652,0.0309 -0.0666,0.61807 c -0.0369,0.33992 -0.22227,1.77353 -0.41223,3.18597 -0.40362,3.00073 -0.37882,2.94915 -1.58702,3.28383 -3.10812,0.86098 -4.11808,1.26642 -5.91289,2.37444 -0.68033,0.41997 -1.08988,0.60964 -1.31869,0.60964 -0.3752,0 -0.81013,-0.27468 -1.8312,-1.15742 -0.37518,-0.32436 -0.89354,-0.74638 -1.15179,-0.93751 -0.25825,-0.1911 -0.96596,-0.73701 -1.57286,-1.21309 l -1.10344,-0.86553 -3.04727,2.88003 c -2.96129,2.79865 -3.0414,2.88428 -2.84498,3.05382 0.11116,0.096 0.56287,0.62631 1.00317,1.17876 0.4403,0.55245 1.1895,1.43692 1.66489,1.96502 1.27095,1.41187 1.42852,1.65693 1.37294,2.13486 -0.0269,0.23139 -0.22887,0.68274 -0.48004,1.07362 -0.98876,1.53859 -1.66201,3.05938 -2.31834,5.23702 -0.22797,0.7563 -0.60124,1.28376 -1.01437,1.43355 -0.13547,0.049 -1.15226,0.18024 -2.25994,0.29131 -1.10768,0.11103 -2.29658,0.24648 -2.6421,0.30088 -0.34551,0.0545 -0.80493,0.0993 -1.02087,0.0996 l -0.39278,5.6e-4 v 4.27196 4.27252 l 1.49207,0.12317 c 2.47997,0.20477 4.63334,0.48728 4.96692,0.65181 0.4519,0.22284 0.59244,0.47704 1.01617,1.84128 0.65236,2.10045 0.86941,2.5706 2.198,4.76181 0.75228,1.24074 0.72336,1.33305 -1.02147,3.27314 -0.62575,0.6958 -1.50261,1.72702 -1.94855,2.29176 l -0.81089,1.02694 3.04546,2.86204 c 1.67509,1.57424 3.09401,2.8347 3.15285,2.80072 0.28907,-0.16684 3.83131,-2.89538 4.2421,-3.26751 0.62211,-0.56362 1.08895,-0.7822 1.50506,-0.70469 0.18015,0.0334 0.86809,0.39742 1.52865,0.80873 1.35015,0.84067 2.24856,1.20352 4.23561,1.70911 1.73572,0.44164 1.85952,0.48828 2.20744,0.8346 0.26297,0.26173 0.30351,0.41155 0.4777,1.76481 0.10468,0.81339 0.29613,2.23186 0.42583,3.15166 l 0.2359,1.672 h 4.36418 4.36419 l 0.0748,-0.87396 c 0.0413,-0.48049 0.16592,-1.45756 0.27719,-2.17142 0.11126,-0.71387 0.25028,-1.67988 0.30901,-2.14666 0.18479,-1.46834 0.34898,-1.65252 1.77753,-1.99482 2.44329,-0.58543 3.57833,-1.02679 5.48236,-2.13318 0.62863,-0.36524 1.25517,-0.66417 1.39242,-0.66417 0.37485,0 0.84881,0.26894 1.49267,0.84752 0.31838,0.28611 1.39801,1.13844 2.39912,1.89415 l 1.81997,1.37394 2.96883,-2.83167 c 1.63277,-1.55745 2.96878,-2.87011 2.96941,-2.91715 9.2e-4,-0.10556 -1.86314,-2.39486 -2.9293,-3.59652 -1.19221,-1.34375 -1.25758,-1.44485 -1.25736,-1.956 0,-0.36644 0.10167,-0.61299 0.53551,-1.30083 1.06521,-1.68887 1.6202,-2.93881 2.28884,-5.15772 0.16343,-0.54244 0.30028,-0.78655 0.56792,-1.01063 0.40037,-0.33525 0.6526,-0.38083 3.98911,-0.72212 1.09411,-0.11194 2.18916,-0.22754 2.4339,-0.25702 l 0.44527,-0.0534 v -4.17129 -4.17128 l -1.64895,-0.21766 c -0.90695,-0.11975 -2.12053,-0.26137 -2.69635,-0.31437 -2.64003,-0.24296 -2.67473,-0.26762 -3.28022,-2.34521 -0.43175,-1.48152 -0.80549,-2.31208 -1.76868,-3.92719 -0.4476,-0.75055 -0.85075,-1.48735 -0.89525,-1.63713 -0.12066,-0.40616 0.10467,-0.80144 1.09637,-1.92396 0.48509,-0.54914 1.38873,-1.62028 2.00751,-2.38006 l 1.12467,-1.38124 -2.97946,-2.83281 -2.98002,-2.83332 -0.45469,0.37791 c -0.25028,0.20779 -1.04416,0.8209 -1.76394,1.36268 -0.71982,0.54179 -1.62829,1.257 -2.01875,1.58877 -1.28905,1.09533 -1.50459,1.11365 -2.90987,0.24915 -1.76082,-1.08326 -3.5455,-1.81125 -5.85566,-2.3885 -0.25912,-0.0648 -0.6208,-0.22566 -0.80382,-0.35767 -0.41477,-0.29919 -0.4428,-0.42864 -0.87816,-4.03464 -0.18231,-1.51011 -0.33794,-2.74561 -0.34559,-2.74561 z m -3.07732,14.30397 c 0.69614,0.0377 1.33552,0.10634 1.82233,0.20585 2.04568,0.41742 4.92831,1.54871 6.52622,2.56171 0.90072,0.57102 2.09781,1.63136 2.97059,2.63089 1.59616,1.82793 2.91882,4.32028 3.5863,6.75774 0.35986,1.31408 0.46387,4.03967 0.2135,5.5891 -0.57564,3.56233 -2.31001,6.72896 -5.06363,9.24521 -2.15538,1.9696 -5.12252,3.45217 -8.09145,4.04306 -1.1484,0.22857 -5.11504,0.28291 -6.22958,0.0855 l 6e-4,-5.7e-4 c -2.55245,-0.45207 -5.01237,-1.42231 -6.80105,-2.68376 -1.12312,-0.79205 -2.91832,-2.53636 -3.70602,-3.60101 -1.26951,-1.71579 -2.41593,-4.31567 -2.81253,-6.377 -0.27258,-1.41669 -0.24015,-4.38484 0.0632,-5.75387 0.73786,-3.33048 2.17843,-5.96223 4.45795,-8.14518 2.21447,-2.12066 5.24661,-3.64295 8.67647,-4.35633 1.04598,-0.21754 2.85331,-0.28442 4.3872,-0.20134 z m -1.90963,2.2524 c -2.73499,0.11504 -5.33023,0.91724 -7.5819,2.34351 -1.55562,0.98538 -3.51168,3.16859 -4.44558,4.96201 -1.10283,2.11793 -1.63588,4.84173 -1.39593,7.13006 0.23183,2.21116 0.79776,3.93198 1.8589,5.64982 2.2248,3.60166 5.79838,5.89328 10.27354,6.58903 1.16336,0.18086 3.43798,0.13326 4.58887,-0.0962 2.95283,-0.58841 5.35993,-1.80874 7.38195,-3.7433 2.03271,-1.94479 3.1989,-4.01186 3.83341,-6.79318 0.14821,-0.64968 0.19402,-1.27031 0.19402,-2.64607 0,-2.39785 -0.30127,-3.76139 -1.26677,-5.73363 -2.43477,-4.97344 -7.58351,-7.90843 -13.44051,-7.66208 z" />
      <path
         id="rect1"
         style="stroke-width:0.28425;paint-order:stroke fill markers;fill:#ffffff"
         d="m 311.02301,247.97297 c -7.95651,0.0258 -9.96252,0.52506 -20.84822,5.19051 l -3.4714,1.4882 -41.19617,0.22661 -41.19563,0.22662 -0.18932,1.02357 c -0.30582,1.65055 -0.88629,24.15234 -1.24961,48.45116 -0.26317,17.60189 -0.24428,22.6344 0.0853,22.92416 0.23224,0.2042 13.49049,7.79821 29.46306,16.87542 15.97254,9.0772 29.35391,16.70032 29.73649,16.94047 0.38259,0.24016 0.76027,0.44488 0.83915,0.45432 0.64054,0.0778 16.74707,-10.07191 35.49277,-22.36628 20.36413,-13.35584 38.72832,-24.7127 39.96184,-24.7127 0.74328,0 6.35204,2.83881 15.65358,7.92239 5.04444,2.75697 9.2401,5.01269 9.3237,5.01269 0.0836,0 4.95535,-2.81423 10.82628,-6.25366 5.87093,-3.43945 11.18497,-6.50365 11.8087,-6.80937 l 1.13418,-0.5557 12.43007,6.72425 c 6.83646,3.69839 12.7428,6.71981 13.12539,6.71666 0.38257,-0.004 4.84301,-2.45372 9.9121,-5.44315 5.06912,-2.98942 9.96165,-5.70863 10.87234,-6.04278 3.44892,-1.26551 4.19389,-1.022 14.51654,4.75301 3.73009,2.08682 7.8451,4.35731 9.14461,5.04522 l 2.36275,1.25073 2.33264,-1.1526 c 1.28288,-0.63384 4.60172,-2.32553 7.37538,-3.75924 2.77366,-1.43371 5.70535,-2.88735 6.51464,-3.23066 1.80467,-0.76556 1.24363,-0.94504 13.6575,4.37296 12.13834,5.20001 13.61614,5.75091 14.19136,5.29568 0.85096,-0.67347 1.76168,-2.76646 4.04784,-9.29944 2.83934,-8.11378 4.83829,-14.83673 5.74829,-19.33352 0.95115,-4.70016 0.92219,-5.4603 -0.25015,-6.50088 -2.27668,-2.02076 -26.88984,-17.84858 -27.75562,-17.84858 -0.27797,0 -4.50182,3.73149 -9.38623,8.29215 -4.8844,4.56069 -9.25235,8.52479 -9.70687,8.80881 -0.76558,0.47834 -1.24429,0.42763 -6.50783,-0.68582 -13.78134,-2.9153 -73.96588,-15.06592 -98.71688,-19.92988 l -11.30326,-2.22118 -1.73911,-2.1881 c -7.35411,-9.25401 -17.8105,-16.21817 -28.28607,-18.83853 -2.92724,-0.73224 -4.06181,-0.83863 -8.7541,-0.82352 z m 5.33956,23.97049 c 1.7922,0.0763 3.54947,0.80241 4.98138,2.16589 2.85582,2.71933 2.94656,7.0928 0.20411,9.82316 -0.50333,0.50111 -1.75267,1.21013 -2.77666,1.57548 -3.11807,1.1125 -5.7003,0.69862 -7.8672,-1.26104 -3.19977,-2.89375 -3.07214,-7.94646 0.2672,-10.57133 1.57165,-1.23538 3.39897,-1.80858 5.19117,-1.73216 z m -54.07888,5.89423 c 1.12944,-0.0134 2.25356,0.22407 3.2872,0.71347 1.77621,0.84069 3.02598,2.69063 3.40033,5.03329 0.2319,1.45139 0.22543,6.76905 -0.009,8.03841 -0.66212,3.57079 -2.73116,5.47321 -6.18152,5.68443 -0.45987,0.0281 -1.13549,0.007 -1.50148,-0.046 l -5.6e-4,-5.4e-4 c -2.63475,-0.38591 -4.36789,-1.79251 -5.1747,-4.20055 -0.26068,-0.77812 -0.2775,-0.86138 -0.46561,-2.27106 -0.13729,-1.02896 -0.0841,-6.17953 0.0739,-7.14116 0.41282,-2.51392 1.58007,-4.24807 3.43161,-5.09944 1.00287,-0.46114 2.0739,-0.69806 3.14049,-0.71075 z m -32.78547,0.003 c 0.23652,-0.006 0.47637,-0.002 0.71974,0.0141 3.07616,0.199 5.06675,1.72924 6.02975,4.63589 0.48805,1.4731 0.55631,7.6914 0.10628,9.67517 -0.27798,1.22543 -1.02625,2.66998 -1.73286,3.34614 -1.01935,0.97538 -1.99508,1.45187 -3.5021,1.70939 -0.93618,0.15998 -1.31843,0.16535 -2.28147,0.033 -2.89347,-0.39766 -4.71643,-2.02439 -5.46405,-4.87554 -0.28856,-1.10048 -0.33964,-1.92471 -0.32918,-5.31358 0.008,-2.71644 0.0627,-3.4508 0.33372,-4.50199 0.72704,-2.81932 3.12782,-4.64188 6.12015,-4.72265 z m 15.87767,0.28572 h 1.55147 1.55151 l -0.0563,7.83456 -0.0563,7.83512 h 1.91137 1.91136 l 5.7e-4,0.60449 c 3.2e-4,0.33258 0.0324,1.06627 0.0721,1.63024 l 0.0722,1.0252 h -5.98085 -5.98141 v -1.57764 -1.57712 h 2.17402 2.17403 v -5.52123 c 0,-3.03667 -0.0272,-5.52122 -0.0597,-5.52122 -0.23751,0 -1.47326,0.73076 -2.86875,1.69638 -0.90862,0.6287 -1.67468,1.14284 -1.70272,1.14284 -0.0281,0 -0.0512,-0.84462 -0.0512,-1.87691 v -1.87691 l 1.16887,-0.75738 c 0.64279,-0.41652 1.84401,-1.27543 2.66921,-1.9089 z m 33.41368,0 h 1.60323 v 7.88715 7.8877 h 1.83917 1.83974 v 1.57712 1.57764 h -5.85692 -5.8569 l 0.0148,-1.57764 0.0141,-1.57712 h 2.14277 2.14219 l 0.004,-5.6264 c 0.003,-3.09452 -0.0293,-5.6264 -0.0716,-5.6264 -0.0883,0 -0.63609,0.35944 -2.92903,1.923 l -1.64416,1.12115 v -1.93817 -1.93764 l 1.36559,-0.87231 c 1.3763,-0.87918 3.35354,-2.31545 3.63682,-2.64188 0.13025,-0.15009 0.39108,-0.1762 1.75559,-0.1762 z m -16.43139,3.05175 c -1.43414,-0.004 -2.33192,0.68947 -2.78632,2.15394 -0.21703,0.69944 -0.32742,6.37915 -0.14838,7.63398 0.28058,1.96697 1.30383,3.00738 2.9813,3.03169 0.42031,0.006 0.72826,-0.0685 1.15923,-0.28084 0.39435,-0.19435 0.70924,-0.45654 0.95908,-0.79857 0.70496,-0.96499 0.74603,-1.22434 0.79424,-5.01162 0.0291,-2.2951 0.002,-3.61867 -0.0836,-4.02923 -0.37093,-1.78302 -1.34126,-2.69428 -2.87558,-2.69935 z m -32.39887,0.0173 c -1.29434,-0.0582 -2.14158,0.42856 -2.66127,1.52886 -0.46673,0.98824 -0.51849,1.53455 -0.48495,5.1298 0.034,3.63492 0.0817,3.98429 0.67371,4.93734 0.61331,0.98727 1.93506,1.43939 3.22237,1.10218 0.5222,-0.1368 1.24387,-0.73504 1.53387,-1.27132 0.4798,-0.88724 0.55728,-1.59905 0.55147,-5.06258 -0.005,-3.6659 -0.0834,-4.3277 -0.59921,-5.13902 -0.50761,-0.79849 -1.20116,-1.17869 -2.23599,-1.22526 z m 263.14814,18.19827 c 0.60653,0.0131 1.25008,0.16114 1.89885,0.47329 1.60715,0.77325 1.96166,3.81321 0.59639,5.11516 -0.49434,0.47139 -2.29598,1.04043 -2.8568,0.90213 -0.1913,-0.0472 -0.77537,-0.17589 -1.29793,-0.2857 -0.57266,-0.12033 -1.1599,-0.58632 -1.47815,-1.17322 -1.41757,-2.61413 0.50933,-5.08859 3.13764,-5.03166 z m -215.48619,4.81372 c 1.35466,0 2.05358,0.13536 3.05069,0.59148 1.79988,0.82333 2.93377,2.28416 3.45888,4.45645 0.25422,1.05172 0.3639,6.26304 0.16602,7.88716 -0.45115,3.70278 -1.9456,5.639 -4.9126,6.36427 -0.59535,0.14554 -2.41578,0.19148 -3.28264,0.083 -0.65589,-0.0822 -1.72469,-0.47188 -2.3622,-0.86093 -1.25889,-0.76823 -2.02277,-1.79226 -2.5595,-3.43233 l -0.30926,-0.94443 -0.004,-4.04875 c -0.003,-2.22688 0.0321,-4.23809 0.0768,-4.46946 0.7116,-3.68319 3.01775,-5.6264 6.67785,-5.6264 z m -48.57444,0.31554 h 1.64928 1.64927 v 7.78197 7.78253 h 1.89488 1.89546 v 1.63024 1.62969 h -5.89273 -5.89271 l -0.0716,-0.64623 c -0.0394,-0.35553 -0.0716,-1.08923 -0.0716,-1.63024 v -0.98346 h 2.17401 2.17405 v -5.5272 c 0,-4.3933 -0.0285,-5.51199 -0.1393,-5.4502 -0.27648,0.15425 -2.39147,1.52445 -3.40033,2.20275 l -1.03131,0.6934 v -1.95064 -1.95065 l 0.86416,-0.54703 c 1.15113,-0.72851 2.71692,-1.83474 3.53451,-2.49712 z m 16.16705,0 h 1.59241 1.59243 v 7.78902 7.78903 l 1.92274,-0.0228 c 1.05768,-0.0126 1.91077,0.008 1.89545,0.046 -0.0155,0.0377 -0.0279,0.77833 -0.0279,1.64595 v 1.57711 h -5.90862 -5.90866 v -1.62969 -1.63024 h 2.17403 2.17403 v -5.52123 c 0,-4.11504 -0.0328,-5.49708 -0.12906,-5.52123 -2.9e-4,-6e-5 -0.001,2e-5 -0.002,0 -0.0719,0 -1.07185,0.63903 -2.22235,1.41989 -1.1505,0.78086 -2.13268,1.4191 -2.18255,1.4188 -0.05,-3e-4 -0.10002,-0.84023 -0.11086,-1.86662 l -0.0193,-1.86607 0.68848,-0.41366 c 0.92595,-0.55601 2.49926,-1.65987 3.5834,-2.51448 z m 16.10163,0 h 1.56857 1.56854 v 7.78902 7.78903 l 1.64416,-0.0141 c 0.90439,-0.007 1.75748,-0.011 1.89544,-0.006 0.24901,0.007 0.25073,0.0197 0.25073,1.63783 v 1.62969 h -5.96437 -5.96378 l -0.001,-1.63023 v -1.63024 h 2.17403 2.17346 v -5.46865 c 0,-3.00775 -0.0399,-5.46862 -0.0892,-5.46862 -0.10467,0 -1.85996,1.12289 -3.3355,2.13442 -0.56543,0.38762 -1.06173,0.7048 -1.10293,0.7048 h -5.8e-4 -5.7e-4 -5.6e-4 l -5.7e-4,-5.5e-4 h -5.7e-4 l -5.6e-4,-5.4e-4 c -0.0376,-0.0289 -0.0391,-0.50236 -0.001,-1.0767 0.0384,-0.59288 0.071,-1.4676 0.0721,-1.9436 l 0.002,-0.86527 1.19845,-0.75141 c 0.65912,-0.41333 1.80982,-1.219 2.55664,-1.79018 z m 16.1335,2.95632 c -0.70585,-0.005 -1.17215,0.18556 -1.67713,0.66196 -0.59077,0.5573 -0.90948,1.18772 -1.06825,2.11329 -0.12794,0.74593 -0.16689,6.30302 -0.0507,7.20569 0.27871,2.16278 1.90549,3.34125 3.90119,2.82621 0.69071,-0.17826 1.43391,-0.96649 1.74195,-1.84819 0.2336,-0.66862 0.25304,-0.94145 0.2945,-4.052 0.0477,-3.58808 -0.0194,-4.37791 -0.45028,-5.26533 -0.49789,-1.02589 -1.25171,-1.54312 -2.37358,-1.62807 -0.1114,-0.008 -0.21695,-0.0128 -0.3178,-0.0135 z" />
    </g>
    <text
       xml:space="preserve"
       transform="matrix(0.75517057,0,0,0.75517057,299.34754,-696.58502)"
       id="text10"
       style="font-style:normal;font-variant:normal;font-weight:normal;font-stretch:normal;font-size:32px;line-height:32.3959px;font-family:Arial;-inkscape-font-specification:Arial;text-align:start;writing-mode:lr-tb;direction:ltr;white-space:pre;shape-inside:url(#rect10-4);display:inline;fill:#ffffff;paint-order:stroke fill markers"><tspan
         x="-385.40234"
         y="1148.8893"
         id="tspan8"><tspan
           style="font-weight:bold;-inkscape-font-specification:'Arial Bold'"
           id="tspan7">CONGRESO
</tspan></tspan><tspan
         x="-385.40234"
         y="1181.2852"
         id="tspan10"><tspan
           style="font-weight:bold;-inkscape-font-specification:'Arial Bold'"
           id="tspan9">DE ESTUDIANTES
</tspan></tspan><tspan
         x="-385.40234"
         y="1213.681"
         id="tspan12"><tspan
           style="font-weight:bold;-inkscape-font-specification:'Arial Bold'"
           id="tspan11">DE INGENIERA
</tspan></tspan></text>
  </g>
</svg>
